<svg width="56" height="56" viewBox="0 0 56 56" fill="none" xmlns="http://www.w3.org/2000/svg">
<path d="M0 16C0 7.16344 7.16344 0 16 0H40C48.8366 0 56 7.16344 56 16V40C56 48.8366 48.8366 56 40 56H16C7.16344 56 0 48.8366 0 40V16Z" fill="#FDB71A"/>
<path d="M37.3337 25.6666C37.3337 31.4918 30.8715 37.5585 28.7015 39.4321C28.4993 39.5842 28.2533 39.6664 28.0003 39.6664C27.7474 39.6664 27.5013 39.5842 27.2992 39.4321C25.1292 37.5585 18.667 31.4918 18.667 25.6666C18.667 23.1913 19.6503 20.8173 21.4007 19.067C23.151 17.3166 25.525 16.3333 28.0003 16.3333C30.4757 16.3333 32.8496 17.3166 34.6 19.067C36.3503 20.8173 37.3337 23.1913 37.3337 25.6666Z" stroke="#1A1A1A" stroke-width="2.33333" stroke-linecap="round" stroke-linejoin="round"/>
<path d="M28 29.1667C29.933 29.1667 31.5 27.5997 31.5 25.6667C31.5 23.7337 29.933 22.1667 28 22.1667C26.067 22.1667 24.5 23.7337 24.5 25.6667C24.5 27.5997 26.067 29.1667 28 29.1667Z" stroke="#1A1A1A" stroke-width="2.33333" stroke-linecap="round" stroke-linejoin="round"/>
</svg>
