<svg width="61" height="61" viewBox="0 0 61 61" fill="none" xmlns="http://www.w3.org/2000/svg">
<path d="M0 16C0 7.16345 7.16344 0 16 0H44.4948C53.3313 0 60.4948 7.16344 60.4948 16V44.4948C60.4948 53.3313 53.3313 60.4948 44.4948 60.4948H16C7.16345 60.4948 0 53.3313 0 44.4948V16Z" fill="url(#paint0_linear_297_3305)"/>
<path d="M25.2066 42.8504C25.9026 42.8504 26.4669 42.2862 26.4669 41.5901C26.4669 40.8941 25.9026 40.3298 25.2066 40.3298C24.5105 40.3298 23.9463 40.8941 23.9463 41.5901C23.9463 42.2862 24.5105 42.8504 25.2066 42.8504Z" stroke="#1A1A1A" stroke-width="2.52061" stroke-linecap="round" stroke-linejoin="round"/>
<path d="M39.0699 42.8504C39.7659 42.8504 40.3302 42.2862 40.3302 41.5901C40.3302 40.8941 39.7659 40.3298 39.0699 40.3298C38.3738 40.3298 37.8096 40.8941 37.8096 41.5901C37.8096 42.2862 38.3738 42.8504 39.0699 42.8504Z" stroke="#1A1A1A" stroke-width="2.52061" stroke-linecap="round" stroke-linejoin="round"/>
<path d="M17.708 17.7074H20.2286L23.581 33.3604C23.704 33.9337 24.023 34.4461 24.4831 34.8096C24.9431 35.173 25.5155 35.3647 26.1017 35.3517H38.4275C39.0011 35.3508 39.5573 35.1542 40.0041 34.7944C40.451 34.4347 40.7617 33.9333 40.8851 33.373L42.9646 24.0089H21.5772" stroke="#1A1A1A" stroke-width="2.52061" stroke-linecap="round" stroke-linejoin="round"/>
<defs>
<linearGradient id="paint0_linear_297_3305" x1="0" y1="0" x2="60.4948" y2="60.4948" gradientUnits="userSpaceOnUse">
<stop stop-color="#FDB71A"/>
<stop offset="1" stop-color="#F0B100"/>
</linearGradient>
</defs>
</svg>
