<svg width="40" height="40" viewBox="0 0 40 40" fill="none" xmlns="http://www.w3.org/2000/svg">
<path d="M15 30C15.5523 30 16 29.5523 16 29C16 28.4477 15.5523 28 15 28C14.4477 28 14 28.4477 14 29C14 29.5523 14.4477 30 15 30Z" stroke="#1A1A1A" stroke-width="2" stroke-linecap="round" stroke-linejoin="round"/>
<path d="M26 30C26.5523 30 27 29.5523 27 29C27 28.4477 26.5523 28 26 28C25.4477 28 25 28.4477 25 29C25 29.5523 25.4477 30 26 30Z" stroke="#1A1A1A" stroke-width="2" stroke-linecap="round" stroke-linejoin="round"/>
<path d="M9.0498 10.0498H11.0498L13.7098 22.4698C13.8074 22.9247 14.0605 23.3313 14.4255 23.6197C14.7906 23.908 15.2447 24.0602 15.7098 24.0498H25.4898C25.945 24.0491 26.3863 23.8931 26.7408 23.6076C27.0954 23.3222 27.3419 22.9243 27.4398 22.4798L29.0898 15.0498H12.1198" stroke="#1A1A1A" stroke-width="2" stroke-linecap="round" stroke-linejoin="round"/>
</svg>
