<svg width="56" height="56" viewBox="0 0 56 56" fill="none" xmlns="http://www.w3.org/2000/svg">
<path d="M0 16C0 7.16344 7.16344 0 16 0H40C48.8366 0 56 7.16344 56 16V40C56 48.8366 48.8366 56 40 56H16C7.16344 56 0 48.8366 0 40V16Z" fill="#FDB71A"/>
<path d="M39.667 30.3333V25.6667" stroke="#1A1A1A" stroke-width="2.33333" stroke-linecap="round" stroke-linejoin="round"/>
<path d="M32.6663 21H18.6663C17.3777 21 16.333 22.0447 16.333 23.3333V32.6667C16.333 33.9553 17.3777 35 18.6663 35H32.6663C33.955 35 34.9997 33.9553 34.9997 32.6667V23.3333C34.9997 22.0447 33.955 21 32.6663 21Z" stroke="#1A1A1A" stroke-width="2.33333" stroke-linecap="round" stroke-linejoin="round"/>
</svg>
