<svg width="24" height="24" viewBox="0 0 24 24" fill="none" xmlns="http://www.w3.org/2000/svg">
<path d="M15.182 12.0001L19.4251 7.75733C19.8471 7.33534 20.0841 6.76299 20.0841 6.16621C20.0841 5.56942 19.8471 4.99707 19.4251 4.57508C19.0031 4.15309 18.4307 3.91602 17.834 3.91602C17.2372 3.91602 16.6648 4.15309 16.2428 4.57508L12.0001 8.81821L7.75733 4.57508C7.33534 4.15309 6.76299 3.91602 6.16621 3.91602C5.56942 3.91602 4.99707 4.15309 4.57508 4.57508C4.15309 4.99707 3.91602 5.56942 3.91602 6.16621C3.91602 6.76299 4.15309 7.33534 4.57508 7.75733L8.81821 12.0001L4.57508 16.2428C4.15309 16.6648 3.91602 17.2372 3.91602 17.834C3.91602 18.4307 4.15309 19.0031 4.57508 19.4251C4.99707 19.8471 5.56942 20.0841 6.16621 20.0841C6.76299 20.0841 7.33534 19.8471 7.75733 19.4251L12.0001 15.182L16.2428 19.4251C16.6648 19.8471 17.2372 20.0841 17.834 20.0841C18.4307 20.0841 19.0031 19.8471 19.4251 19.4251C19.8471 19.0031 20.0841 18.4307 20.0841 17.834C20.0841 17.2372 19.8471 16.6648 19.4251 16.2428L15.182 12.0001Z" fill="black"/>
</svg>
