<svg width="64" height="64" viewBox="0 0 64 64" fill="none" xmlns="http://www.w3.org/2000/svg">
<path d="M0 16C0 7.16344 7.16344 0 16 0H48C56.8366 0 64 7.16344 64 16V48C64 56.8366 56.8366 64 48 64H16C7.16344 64 0 56.8366 0 48V16Z" fill="#FDB71A"/>
<path d="M30.6667 42.6665C28.3254 42.6736 26.067 41.8005 24.3394 40.2204C22.6117 38.6403 21.541 36.4686 21.3397 34.136C21.1383 31.8034 21.8209 29.4803 23.2522 27.6275C24.6835 25.7747 26.7589 24.5274 29.0667 24.1332C36.6667 22.6665 38.6667 21.9732 41.3333 18.6665C42.6667 21.3332 44 24.2398 44 29.3332C44 36.6665 37.6267 42.6665 30.6667 42.6665Z" stroke="#1A1A1A" stroke-width="2.66667" stroke-linecap="round" stroke-linejoin="round"/>
<path d="M18.6666 44C18.6666 40 21.1333 36.8533 25.44 36C28.6666 35.36 32 33.3333 33.3333 32" stroke="#1A1A1A" stroke-width="2.66667" stroke-linecap="round" stroke-linejoin="round"/>
</svg>
