<svg width="56" height="56" viewBox="0 0 56 56" fill="none" xmlns="http://www.w3.org/2000/svg">
<path d="M0 16C0 7.16344 7.16344 0 16 0H40C48.8366 0 56 7.16344 56 16V40C56 48.8366 48.8366 56 40 56H16C7.16344 56 0 48.8366 0 40V16Z" fill="#FDB71A"/>
<path d="M39.6663 22.1667L29.1768 28.8482C28.8209 29.0549 28.4166 29.1638 28.0049 29.1638C27.5933 29.1638 27.189 29.0549 26.833 28.8482L16.333 22.1667" stroke="#1A1A1A" stroke-width="2.33333" stroke-linecap="round" stroke-linejoin="round"/>
<path d="M37.333 18.6667H18.6663C17.3777 18.6667 16.333 19.7114 16.333 21V35C16.333 36.2887 17.3777 37.3334 18.6663 37.3334H37.333C38.6217 37.3334 39.6663 36.2887 39.6663 35V21C39.6663 19.7114 38.6217 18.6667 37.333 18.6667Z" stroke="#1A1A1A" stroke-width="2.33333" stroke-linecap="round" stroke-linejoin="round"/>
</svg>
