<svg width="40" height="40" viewBox="0 0 40 40" fill="none" xmlns="http://www.w3.org/2000/svg">
<rect width="40" height="40" rx="8" fill="#FDB71A"/>
<path fill-rule="evenodd" clip-rule="evenodd" d="M10 13.25C10 12.5596 10.6716 12 11.5 12H29.5C30.3284 12 31 12.5596 31 13.25C31 13.9404 30.3284 14.5 29.5 14.5H11.5C10.6716 14.5 10 13.9404 10 13.25ZM10 19.5C10 18.8097 10.6716 18.25 11.5 18.25H29.5C30.3284 18.25 31 18.8097 31 19.5C31 20.1904 30.3284 20.75 29.5 20.75H11.5C10.6716 20.75 10 20.1904 10 19.5ZM10 25.75C10 25.0597 10.6716 24.5 11.5 24.5H29.5C30.3284 24.5 31 25.0597 31 25.75C31 26.4404 30.3284 27 29.5 27H11.5C10.6716 27 10 26.4404 10 25.75Z" fill="black"/>
</svg>
