<svg width="48" height="48" viewBox="0 0 48 48" fill="none" xmlns="http://www.w3.org/2000/svg">
<mask id="path-1-inside-1_344_1915" fill="white">
<path d="M0 14C0 6.26801 6.26801 0 14 0H34C41.732 0 48 6.26801 48 14V34C48 41.732 41.732 48 34 48H14C6.26801 48 0 41.732 0 34V14Z"/>
</mask>
<path d="M0 14C0 6.26801 6.26801 0 14 0H34C41.732 0 48 6.26801 48 14V34C48 41.732 41.732 48 34 48H14C6.26801 48 0 41.732 0 34V14Z" fill="white" fill-opacity="0.1"/>
<path d="M14 0V1H34V0V-1H14V0ZM48 14H47V34H48H49V14H48ZM34 48V47H14V48V49H34V48ZM0 34H1V14H0H-1V34H0ZM14 48V47C6.8203 47 1 41.1797 1 34H0H-1C-1 42.2843 5.71573 49 14 49V48ZM48 34H47C47 41.1797 41.1797 47 34 47V48V49C42.2843 49 49 42.2843 49 34H48ZM34 0V1C41.1797 1 47 6.8203 47 14H48H49C49 5.71573 42.2843 -1 34 -1V0ZM14 0V-1C5.71573 -1 -1 5.71573 -1 14H0H1C1 6.8203 6.8203 1 14 1V0Z" fill="white" fill-opacity="0.2" mask="url(#path-1-inside-1_344_1915)"/>
<path d="M31.5901 18.69C30.5933 18.4708 29.6915 17.9414 29.0142 17.1779C28.3369 16.4143 27.9189 15.4559 27.8201 14.44V14H24.3701V27.67C24.3708 28.2766 24.1807 28.868 23.8266 29.3604C23.4725 29.8529 22.9724 30.2215 22.3972 30.414C21.822 30.6065 21.2008 30.6131 20.6216 30.4329C20.0424 30.2527 19.5346 29.8948 19.1701 29.41C18.8436 28.9808 18.6436 28.4689 18.5929 27.932C18.5421 27.3951 18.6426 26.8548 18.8829 26.372C19.1233 25.8892 19.4939 25.4834 19.9529 25.2003C20.4118 24.9172 20.9409 24.7681 21.4801 24.77C21.7784 24.7683 22.0751 24.8121 22.3601 24.9V21.4C22.0285 21.3589 21.6943 21.3422 21.3601 21.35C20.1295 21.3829 18.9351 21.7739 17.9232 22.4753C16.9114 23.1766 16.126 24.1578 15.6633 25.2986C15.2006 26.4395 15.0806 27.6905 15.3181 28.8986C15.5555 30.1066 16.1401 31.2191 17.0001 32.1C17.8816 32.9962 19.0096 33.6101 20.2408 33.8638C21.472 34.1175 22.7509 33.9994 23.9148 33.5246C25.0787 33.0498 26.0753 32.2397 26.7778 31.1973C27.4803 30.1548 27.857 28.9271 27.8601 27.67V20.67C29.2516 21.6639 30.9202 22.1956 32.6301 22.19V18.79C32.2942 18.7914 31.9591 18.7579 31.6301 18.69H31.5901Z" fill="white"/>
</svg>
