<svg width="56" height="56" viewBox="0 0 56 56" fill="none" xmlns="http://www.w3.org/2000/svg">
<path d="M0 16C0 7.16344 7.16344 0 16 0H40C48.8366 0 56 7.16344 56 16V40C56 48.8366 48.8366 56 40 56H16C7.16344 56 0 48.8366 0 40V16Z" fill="#FDB71A"/>
<path d="M30.137 33.3293C30.378 33.44 30.6494 33.4653 30.9066 33.401C31.1639 33.3367 31.3916 33.1868 31.5522 32.9758L31.9663 32.4333C32.1837 32.1435 32.4655 31.9083 32.7895 31.7463C33.1135 31.5843 33.4708 31.5 33.833 31.5H37.333C37.9518 31.5 38.5453 31.7458 38.9829 32.1834C39.4205 32.621 39.6663 33.2145 39.6663 33.8333V37.3333C39.6663 37.9522 39.4205 38.5456 38.9829 38.9832C38.5453 39.4208 37.9518 39.6666 37.333 39.6666C31.7635 39.6666 26.422 37.4542 22.4838 33.5159C18.5455 29.5776 16.333 24.2362 16.333 18.6666C16.333 18.0478 16.5788 17.4543 17.0164 17.0167C17.454 16.5791 18.0475 16.3333 18.6663 16.3333H22.1663C22.7852 16.3333 23.3787 16.5791 23.8163 17.0167C24.2538 17.4543 24.4997 18.0478 24.4997 18.6666V22.1666C24.4997 22.5289 24.4153 22.8861 24.2533 23.2101C24.0913 23.5341 23.8561 23.816 23.5663 24.0333L23.0203 24.4428C22.8062 24.6064 22.6552 24.839 22.5931 25.1012C22.531 25.3634 22.5616 25.6391 22.6797 25.8813C24.2741 29.1198 26.8965 31.7389 30.137 33.3293Z" stroke="#1A1A1A" stroke-width="2.33333" stroke-linecap="round" stroke-linejoin="round"/>
</svg>
