<svg width="38" height="38" viewBox="0 0 38 38" fill="none" xmlns="http://www.w3.org/2000/svg">
<path d="M7.9165 7.91663C7.91634 7.35944 8.06319 6.81207 8.34224 6.3298C8.62128 5.84752 9.02264 5.4474 9.50578 5.16986C9.98892 4.89231 10.5367 4.74715 11.0939 4.74904C11.6511 4.75093 12.1979 4.89981 12.6792 5.18063L31.6744 16.2608C32.1538 16.539 32.5518 16.9381 32.8286 17.4182C33.1054 17.8984 33.2513 18.4428 33.2518 18.997C33.2523 19.5512 33.1073 20.0959 32.8313 20.5765C32.5553 21.0572 32.1581 21.457 31.6792 21.736L12.6792 32.8193C12.1979 33.1001 11.6511 33.249 11.0939 33.2509C10.5367 33.2528 9.98892 33.1076 9.50578 32.8301C9.02264 32.5525 8.62128 32.1524 8.34224 31.6701C8.06319 31.1879 7.91634 30.6405 7.9165 30.0833V7.91663Z" stroke="#FB2C36" stroke-width="1.66667" stroke-linecap="round" stroke-linejoin="round"/>
</svg>
