<svg width="61" height="61" viewBox="0 0 61 61" fill="none" xmlns="http://www.w3.org/2000/svg">
<path d="M0 16C0 7.16345 7.16344 0 16 0H44.4948C53.3313 0 60.4948 7.16344 60.4948 16V44.4948C60.4948 53.3313 53.3313 60.4948 44.4948 60.4948H16C7.16345 60.4948 0 53.3313 0 44.4948V16Z" fill="url(#paint0_linear_363_1955)"/>
<g clip-path="url(#clip0_363_1955)">
<path d="M43.7639 32.3499H42.9936V31.4889C42.991 30.7945 42.7748 30.1176 42.3743 29.5502C41.9739 28.9828 41.4086 28.5523 40.7552 28.3171V21.1849C40.7553 21.0642 40.7313 20.9447 40.6846 20.8335C40.6379 20.7222 40.5695 20.6214 40.4833 20.5369L35.866 16.0057C35.6964 15.8399 35.4687 15.7472 35.2316 15.7474H20.6455C20.4052 15.7474 20.1746 15.8429 20.0047 16.0128C19.8347 16.1828 19.7393 16.4133 19.7393 16.6536V43.8411C19.7393 44.0815 19.8347 44.312 20.0047 44.4819C20.1746 44.6519 20.4052 44.7474 20.6455 44.7474H39.8489C40.0893 44.7474 40.3198 44.6519 40.4898 44.4819C40.6597 44.312 40.7552 44.0815 40.7552 43.8411V42.0286H43.7639C44.0043 42.0286 44.2348 41.9331 44.4048 41.7632C44.5747 41.5932 44.6702 41.3627 44.6702 41.1224V33.2561C44.6702 33.0158 44.5747 32.7853 44.4048 32.6153C44.2348 32.4454 44.0043 32.3499 43.7639 32.3499ZM41.1811 32.3499H38.0455V31.4889C38.0455 31.0731 38.2107 30.6743 38.5047 30.3803C38.7987 30.0863 39.1975 29.9211 39.6133 29.9211C40.0291 29.9211 40.4279 30.0863 40.7219 30.3803C41.016 30.6743 41.1811 31.0731 41.1811 31.4889V32.3499ZM30.2472 30.7005C29.6665 30.7005 29.0988 30.5283 28.6159 30.2057C28.1331 29.883 27.7567 29.4244 27.5345 28.8879C27.3122 28.3514 27.2541 27.761 27.3674 27.1914C27.4807 26.6218 27.7603 26.0986 28.171 25.688C28.5816 25.2774 29.1048 24.9977 29.6744 24.8844C30.244 24.7711 30.8344 24.8293 31.3709 25.0515C31.9074 25.2737 32.366 25.6501 32.6886 26.133C33.0113 26.6158 33.1835 27.1835 33.1835 27.7643C33.1823 28.5426 32.8725 29.2888 32.3221 29.8392C31.7718 30.3896 31.0256 30.6993 30.2472 30.7005ZM29.1507 32.3771C29.5095 32.466 29.8776 32.5116 30.2472 32.513C30.6151 32.5112 30.9815 32.4671 31.3393 32.3816C32.6423 32.6479 33.7937 33.4036 34.5564 34.4932V38.4988C32.2908 39.541 27.4288 39.4685 25.5211 38.2768C25.1405 38.0411 24.9457 37.8236 24.9457 37.5653C24.9445 36.3493 25.3618 35.1698 26.1275 34.225C26.8932 33.2803 27.9607 32.6278 29.1507 32.3771ZM36.1379 18.8105L37.6332 20.2786H36.1379V18.8105ZM38.9427 42.9349H21.5518V17.5599H34.3254V20.2786C34.3254 20.7593 34.5163 21.2203 34.8562 21.5603C35.1961 21.9002 35.6571 22.0911 36.1379 22.0911H38.9427V28.1766C38.177 28.3303 37.4879 28.7441 36.9924 29.3478C36.4969 29.9514 36.2254 30.7079 36.2239 31.4889V32.3499H35.4536C35.3497 32.3506 35.2467 32.3706 35.15 32.4088C34.7996 32.0668 34.4138 31.763 33.9991 31.5025C33.8269 31.3938 33.6502 31.2986 33.4735 31.208C34.1731 30.558 34.6607 29.7123 34.8728 28.7811C35.0848 27.85 35.0115 26.8766 34.6623 25.9877C34.3131 25.0988 33.7043 24.3358 32.9151 23.7979C32.126 23.2601 31.1932 22.9724 30.2382 22.9724C29.2832 22.9724 28.3503 23.2601 27.5612 23.7979C26.772 24.3358 26.1632 25.0988 25.814 25.9877C25.4648 26.8766 25.3915 27.85 25.6035 28.7811C25.8156 29.7123 26.3032 30.558 27.0029 31.208C26.8216 31.3032 26.6449 31.3983 26.4727 31.5071C25.4468 32.1451 24.6014 33.0352 24.0168 34.0925C23.4322 35.1498 23.128 36.3391 23.1332 37.5472C23.1332 38.168 23.3824 39.0607 24.5605 39.8128C25.861 40.6239 28.0541 41.0317 30.2472 41.0317C31.706 41.0477 33.1589 40.843 34.5564 40.4246V41.1224C34.5564 41.3627 34.6519 41.5932 34.8219 41.7632C34.9918 41.9331 35.2223 42.0286 35.4627 42.0286H38.9427V42.9349ZM42.8577 40.2161H36.3689V34.1624H42.8577V40.2161Z" fill="black"/>
</g>
<defs>
<linearGradient id="paint0_linear_363_1955" x1="0" y1="0" x2="60.4948" y2="60.4948" gradientUnits="userSpaceOnUse">
<stop stop-color="#FDB71A"/>
<stop offset="1" stop-color="#F0B100"/>
</linearGradient>
<clipPath id="clip0_363_1955">
<rect width="29" height="29" fill="white" transform="translate(15.7471 15.7474)"/>
</clipPath>
</defs>
</svg>
