<svg width="26" height="26" viewBox="0 0 26 26" fill="none" xmlns="http://www.w3.org/2000/svg">
<path d="M0 13C0 5.8203 5.8203 0 13 0C20.1797 0 26 5.8203 26 13C26 20.1797 20.1797 26 13 26C5.8203 26 0 20.1797 0 13Z" fill="url(#paint0_linear_108_1698)"/>
<path d="M4.9929 17V8.27273H8.43608C9.09517 8.27273 9.65767 8.39062 10.1236 8.62642C10.5923 8.85937 10.9489 9.19034 11.1932 9.61932C11.4403 10.0455 11.5639 10.5469 11.5639 11.1236C11.5639 11.7031 11.4389 12.2017 11.1889 12.6193C10.9389 13.0341 10.5767 13.3523 10.1023 13.5739C9.63068 13.7955 9.05966 13.9062 8.3892 13.9062H6.08381V12.4233H8.09091C8.44318 12.4233 8.7358 12.375 8.96875 12.2784C9.2017 12.1818 9.375 12.0369 9.48864 11.8438C9.60511 11.6506 9.66335 11.4105 9.66335 11.1236C9.66335 10.8338 9.60511 10.5895 9.48864 10.3906C9.375 10.1918 9.20028 10.0412 8.96449 9.93892C8.73153 9.83381 8.4375 9.78125 8.08239 9.78125H6.83807V17H4.9929ZM9.70597 13.0284L11.875 17H9.83807L7.71591 13.0284H9.70597ZM18.2585 8.27273H20.1037V13.9403C20.1037 14.5767 19.9517 15.1335 19.6477 15.6108C19.3466 16.0881 18.9247 16.4602 18.3821 16.7273C17.8395 16.9915 17.2074 17.1236 16.4858 17.1236C15.7614 17.1236 15.1278 16.9915 14.5852 16.7273C14.0426 16.4602 13.6207 16.0881 13.3196 15.6108C13.0185 15.1335 12.8679 14.5767 12.8679 13.9403V8.27273H14.7131V13.7827C14.7131 14.1151 14.7855 14.4105 14.9304 14.669C15.0781 14.9276 15.2855 15.1307 15.5526 15.2784C15.8196 15.4261 16.1307 15.5 16.4858 15.5C16.8438 15.5 17.1548 15.4261 17.419 15.2784C17.6861 15.1307 17.892 14.9276 18.0369 14.669C18.1847 14.4105 18.2585 14.1151 18.2585 13.7827V8.27273Z" fill="#1A1A1A"/>
<defs>
<linearGradient id="paint0_linear_108_1698" x1="0" y1="0" x2="26" y2="26" gradientUnits="userSpaceOnUse">
<stop stop-color="#FDB71A"/>
<stop offset="0.5" stop-color="#FDC700"/>
<stop offset="1" stop-color="#FF8904"/>
</linearGradient>
</defs>
</svg>
