<svg width="56" height="56" viewBox="0 0 56 56" fill="none" xmlns="http://www.w3.org/2000/svg">
<path d="M0 16C0 7.16344 7.16344 0 16 0H40C48.8366 0 56 7.16344 56 16V40C56 48.8366 48.8366 56 40 56H16C7.16344 56 0 48.8366 0 40V16Z" fill="#FDB71A"/>
<path d="M37.3337 29.1667C37.3337 35 33.2503 37.9167 28.397 39.6083C28.1428 39.6945 27.8668 39.6903 27.6153 39.5967C22.7503 37.9167 18.667 35 18.667 29.1667V21C18.667 20.6906 18.7899 20.3939 19.0087 20.1751C19.2275 19.9563 19.5242 19.8333 19.8337 19.8333C22.167 19.8333 25.0837 18.4333 27.1137 16.66C27.3608 16.4488 27.6752 16.3328 28.0003 16.3328C28.3254 16.3328 28.6398 16.4488 28.887 16.66C30.9287 18.445 33.8337 19.8333 36.167 19.8333C36.4764 19.8333 36.7732 19.9563 36.992 20.1751C37.2107 20.3939 37.3337 20.6906 37.3337 21V29.1667Z" stroke="#1A1A1A" stroke-width="2.33333" stroke-linecap="round" stroke-linejoin="round"/>
</svg>
