<svg width="33" height="33" viewBox="0 0 33 33" fill="none" xmlns="http://www.w3.org/2000/svg">
<path d="M15.1487 3.86925C15.2077 3.55383 15.375 3.26894 15.6219 3.06393C15.8687 2.85893 16.1795 2.7467 16.5004 2.7467C16.8212 2.7467 17.132 2.85893 17.3789 3.06393C17.6257 3.26894 17.7931 3.55383 17.852 3.86925L19.2971 11.5115C19.3998 12.0548 19.6638 12.5546 20.0548 12.9456C20.4458 13.3366 20.9455 13.6006 21.4889 13.7032L29.1311 15.1484C29.4465 15.2073 29.7314 15.3747 29.9364 15.6215C30.1414 15.8684 30.2537 16.1791 30.2537 16.5C30.2537 16.8209 30.1414 17.1316 29.9364 17.3785C29.7314 17.6253 29.4465 17.7927 29.1311 17.8516L21.4889 19.2967C20.9455 19.3994 20.4458 19.6634 20.0548 20.0544C19.6638 20.4454 19.3998 20.9452 19.2971 21.4885L17.852 29.1307C17.7931 29.4462 17.6257 29.731 17.3789 29.9361C17.132 30.1411 16.8212 30.2533 16.5004 30.2533C16.1795 30.2533 15.8687 30.1411 15.6219 29.9361C15.375 29.731 15.2077 29.4462 15.1487 29.1307L13.7036 21.4885C13.601 20.9452 13.3369 20.4454 12.9459 20.0544C12.555 19.6634 12.0552 19.3994 11.5119 19.2967L3.86961 17.8516C3.55419 17.7927 3.26931 17.6253 3.0643 17.3785C2.85929 17.1316 2.74707 16.8209 2.74707 16.5C2.74707 16.1791 2.85929 15.8684 3.0643 15.6215C3.26931 15.3747 3.55419 15.2073 3.86961 15.1484L11.5119 13.7032C12.0552 13.6006 12.555 13.3366 12.9459 12.9456C13.3369 12.5546 13.601 12.0548 13.7036 11.5115L15.1487 3.86925Z" stroke="#FDB71A" stroke-width="1.66667" stroke-linecap="round" stroke-linejoin="round"/>
<path d="M27.5 2.75V8.25" stroke="#FDB71A" stroke-width="1.66667" stroke-linecap="round" stroke-linejoin="round"/>
<path d="M30.25 5.5H24.75" stroke="#FDB71A" stroke-width="1.66667" stroke-linecap="round" stroke-linejoin="round"/>
<path d="M5.5 30.25C7.01878 30.25 8.25 29.0188 8.25 27.5C8.25 25.9812 7.01878 24.75 5.5 24.75C3.98122 24.75 2.75 25.9812 2.75 27.5C2.75 29.0188 3.98122 30.25 5.5 30.25Z" stroke="#FDB71A" stroke-width="1.66667" stroke-linecap="round" stroke-linejoin="round"/>
</svg>
