<svg width="64" height="64" viewBox="0 0 64 64" fill="none" xmlns="http://www.w3.org/2000/svg">
<path d="M0 16C0 7.16344 7.16344 0 16 0H48C56.8366 0 64 7.16344 64 16V48C64 56.8366 56.8366 64 48 64H16C7.16344 64 0 56.8366 0 48V16Z" fill="#FDB71A"/>
<path d="M37.3333 42.6665V21.3332C37.3333 20.6259 37.0523 19.9476 36.5522 19.4476C36.0521 18.9475 35.3739 18.6665 34.6666 18.6665H29.3333C28.626 18.6665 27.9478 18.9475 27.4477 19.4476C26.9476 19.9476 26.6666 20.6259 26.6666 21.3332V42.6665" stroke="#1A1A1A" stroke-width="2.66667" stroke-linecap="round" stroke-linejoin="round"/>
<path d="M42.6666 24H21.3333C19.8605 24 18.6666 25.1939 18.6666 26.6667V40C18.6666 41.4728 19.8605 42.6667 21.3333 42.6667H42.6666C44.1394 42.6667 45.3333 41.4728 45.3333 40V26.6667C45.3333 25.1939 44.1394 24 42.6666 24Z" stroke="#1A1A1A" stroke-width="2.66667" stroke-linecap="round" stroke-linejoin="round"/>
</svg>
