<svg width="26" height="26" viewBox="0 0 26 26" fill="none" xmlns="http://www.w3.org/2000/svg">
<path d="M0 13C0 5.8203 5.8203 0 13 0C20.1797 0 26 5.8203 26 13C26 20.1797 20.1797 26 13 26C5.8203 26 0 20.1797 0 13Z" fill="url(#paint0_linear_108_1705)"/>
<path d="M9.88352 8.27273H11.7287V13.9403C11.7287 14.5767 11.5767 15.1335 11.2727 15.6108C10.9716 16.0881 10.5497 16.4602 10.0071 16.7273C9.46449 16.9915 8.83239 17.1236 8.1108 17.1236C7.38636 17.1236 6.75284 16.9915 6.21023 16.7273C5.66761 16.4602 5.24574 16.0881 4.9446 15.6108C4.64347 15.1335 4.4929 14.5767 4.4929 13.9403V8.27273H6.33807V13.7827C6.33807 14.1151 6.41051 14.4105 6.5554 14.669C6.70313 14.9276 6.91051 15.1307 7.17756 15.2784C7.4446 15.4261 7.75568 15.5 8.1108 15.5C8.46875 15.5 8.77983 15.4261 9.04403 15.2784C9.31108 15.1307 9.51705 14.9276 9.66193 14.669C9.80966 14.4105 9.88352 14.1151 9.88352 13.7827V8.27273ZM14.7511 17H12.7738L15.7866 8.27273H18.1644L21.1729 17H19.1957L17.0096 10.267H16.9414L14.7511 17ZM14.6275 13.5696H19.2979V15.0099H14.6275V13.5696Z" fill="#1A1A1A"/>
<defs>
<linearGradient id="paint0_linear_108_1705" x1="0" y1="0" x2="26" y2="26" gradientUnits="userSpaceOnUse">
<stop stop-color="#FDB71A"/>
<stop offset="0.5" stop-color="#FDC700"/>
<stop offset="1" stop-color="#FF8904"/>
</linearGradient>
</defs>
</svg>
