<svg width="704" height="1180" viewBox="0 0 704 1180" fill="none" xmlns="http://www.w3.org/2000/svg">
<g filter="url(#filter0_f_70_502)">
<path d="M128 176C128 149.49 149.49 128 176 128H528C554.51 128 576 149.49 576 176V1004C576 1030.51 554.51 1052 528 1052H176C149.49 1052 128 1030.51 128 1004V176Z" fill="#1A1A1A" fill-opacity="0.1"/>
</g>
<g filter="url(#filter1_d_70_502)">
<mask id="path-2-inside-1_70_502" fill="white">
<path d="M128 144C128 117.49 149.49 96 176 96H528C554.51 96 576 117.49 576 144V972C576 998.51 554.51 1020 528 1020H176C149.49 1020 128 998.51 128 972V144Z"/>
</mask>
<path d="M128 144C128 117.49 149.49 96 176 96H528C554.51 96 576 117.49 576 144V972C576 998.51 554.51 1020 528 1020H176C149.49 1020 128 998.51 128 972V144Z" fill="url(#paint0_linear_70_502)" shape-rendering="crispEdges"/>
<path d="M176 96V104H528V96V88H176V96ZM576 144H568V972H576H584V144H576ZM528 1020V1012H176V1020V1028H528V1020ZM128 972H136V144H128H120V972H128ZM176 1020V1012C153.909 1012 136 994.091 136 972H128H120C120 1002.93 145.072 1028 176 1028V1020ZM576 972H568C568 994.091 550.091 1012 528 1012V1020V1028C558.928 1028 584 1002.93 584 972H576ZM528 96V104C550.091 104 568 121.909 568 144H576H584C584 113.072 558.928 88 528 88V96ZM176 96V88C145.072 88 120 113.072 120 144H128H136C136 121.909 153.909 104 176 104V96Z" fill="#101828" mask="url(#path-2-inside-1_70_502)"/>
<g filter="url(#filter2_i_70_502)">
<g clip-path="url(#clip0_70_502)">
<path d="M148 156C148 133.909 165.909 116 188 116H516C538.091 116 556 133.909 556 156V960C556 982.091 538.091 1000 516 1000H188C165.909 1000 148 982.091 148 960V156Z"/>
<rect width="408" height="884" transform="translate(148 116)" fill="black"/>
<rect width="408" height="884" transform="translate(148 116)" fill="url(#paint1_linear_70_502)"/>
<rect width="408" height="884" transform="translate(148 116)" fill="url(#paint2_linear_70_502)"/>
<g opacity="0.862084">
<path d="M333.333 471.333C333.333 470.395 333.58 469.473 334.05 468.661C334.52 467.849 335.196 467.175 336.01 466.707C336.823 466.24 337.746 465.995 338.684 465.999C339.623 466.002 340.544 466.252 341.354 466.725L373.346 485.387C374.154 485.855 374.824 486.527 375.29 487.336C375.756 488.145 376.002 489.062 376.003 489.995C376.004 490.929 375.76 491.846 375.295 492.655C374.83 493.465 374.161 494.138 373.354 494.608L341.354 513.275C340.544 513.748 339.623 513.998 338.684 514.002C337.746 514.005 336.823 513.76 336.01 513.293C335.196 512.825 334.52 512.152 334.05 511.339C333.58 510.527 333.333 509.605 333.333 508.667V471.333Z" stroke="#FDB71A" stroke-width="5.33333" stroke-linecap="round" stroke-linejoin="round"/>
</g>
<path d="M305.781 545.614V544.364H314.508V545.614H310.849V556H309.44V545.614H305.781ZM316.188 556V547.273H317.529V556H316.188ZM316.87 545.818C316.609 545.818 316.383 545.729 316.194 545.551C316.008 545.373 315.915 545.159 315.915 544.909C315.915 544.659 316.008 544.445 316.194 544.267C316.383 544.089 316.609 544 316.87 544C317.131 544 317.355 544.089 317.54 544.267C317.73 544.445 317.825 544.659 317.825 544.909C317.825 545.159 317.73 545.373 317.54 545.551C317.355 545.729 317.131 545.818 316.87 545.818ZM320.923 552.818L320.9 551.159H321.173L324.991 547.273H326.65L322.582 551.386H322.468L320.923 552.818ZM319.673 556V544.364H321.013V556H319.673ZM325.218 556L321.809 551.682L322.763 550.75L326.923 556H325.218ZM326.702 545.614V544.364H335.43V545.614H331.771V556H330.362V545.614H326.702ZM339.39 556.182C338.602 556.182 337.911 555.994 337.316 555.619C336.725 555.244 336.263 554.72 335.93 554.045C335.6 553.371 335.435 552.583 335.435 551.682C335.435 550.773 335.6 549.979 335.93 549.301C336.263 548.623 336.725 548.097 337.316 547.722C337.911 547.347 338.602 547.159 339.39 547.159C340.178 547.159 340.867 547.347 341.458 547.722C342.053 548.097 342.515 548.623 342.844 549.301C343.178 549.979 343.344 550.773 343.344 551.682C343.344 552.583 343.178 553.371 342.844 554.045C342.515 554.72 342.053 555.244 341.458 555.619C340.867 555.994 340.178 556.182 339.39 556.182ZM339.39 554.977C339.988 554.977 340.481 554.824 340.867 554.517C341.254 554.21 341.54 553.807 341.725 553.307C341.911 552.807 342.004 552.265 342.004 551.682C342.004 551.098 341.911 550.555 341.725 550.051C341.54 549.547 341.254 549.14 340.867 548.83C340.481 548.519 339.988 548.364 339.39 548.364C338.791 548.364 338.299 548.519 337.913 548.83C337.526 549.14 337.24 549.547 337.055 550.051C336.869 550.555 336.776 551.098 336.776 551.682C336.776 552.265 336.869 552.807 337.055 553.307C337.24 553.807 337.526 554.21 337.913 554.517C338.299 554.824 338.791 554.977 339.39 554.977ZM346.329 552.818L346.306 551.159H346.579L350.397 547.273H352.056L347.988 551.386H347.874L346.329 552.818ZM345.079 556V544.364H346.42V556H345.079ZM350.624 556L347.215 551.682L348.17 550.75L352.329 556H350.624ZM358.316 544.364L361.771 554.159H361.907L365.362 544.364H366.839L362.566 556H361.112L356.839 544.364H358.316ZM368.157 556V547.273H369.498V556H368.157ZM368.839 545.818C368.577 545.818 368.352 545.729 368.163 545.551C367.977 545.373 367.884 545.159 367.884 544.909C367.884 544.659 367.977 544.445 368.163 544.267C368.352 544.089 368.577 544 368.839 544C369.1 544 369.324 544.089 369.509 544.267C369.699 544.445 369.793 544.659 369.793 544.909C369.793 545.159 369.699 545.373 369.509 545.551C369.324 545.729 369.1 545.818 368.839 545.818ZM374.937 556.182C374.21 556.182 373.567 555.998 373.011 555.631C372.454 555.259 372.018 554.737 371.704 554.062C371.389 553.384 371.232 552.583 371.232 551.659C371.232 550.742 371.389 549.947 371.704 549.273C372.018 548.598 372.456 548.078 373.016 547.71C373.577 547.343 374.225 547.159 374.96 547.159C375.528 547.159 375.977 547.254 376.306 547.443C376.639 547.629 376.893 547.841 377.067 548.08C377.246 548.314 377.384 548.508 377.482 548.659H377.596V544.364H378.937V556H377.641V554.659H377.482C377.384 554.818 377.244 555.019 377.062 555.261C376.88 555.5 376.621 555.714 376.283 555.903C375.946 556.089 375.497 556.182 374.937 556.182ZM375.119 554.977C375.656 554.977 376.111 554.837 376.482 554.557C376.853 554.273 377.136 553.881 377.329 553.381C377.522 552.877 377.619 552.295 377.619 551.636C377.619 550.985 377.524 550.415 377.335 549.926C377.145 549.434 376.865 549.051 376.494 548.778C376.122 548.502 375.664 548.364 375.119 548.364C374.55 548.364 374.077 548.509 373.698 548.801C373.323 549.089 373.041 549.481 372.852 549.977C372.666 550.47 372.573 551.023 372.573 551.636C372.573 552.258 372.668 552.822 372.857 553.33C373.05 553.833 373.335 554.235 373.71 554.534C374.088 554.83 374.558 554.977 375.119 554.977ZM384.925 556.182C384.085 556.182 383.359 555.996 382.749 555.625C382.143 555.25 381.675 554.727 381.346 554.057C381.02 553.383 380.857 552.598 380.857 551.705C380.857 550.811 381.02 550.023 381.346 549.341C381.675 548.655 382.134 548.121 382.721 547.739C383.312 547.352 384.001 547.159 384.789 547.159C385.244 547.159 385.692 547.235 386.136 547.386C386.579 547.538 386.982 547.784 387.346 548.125C387.71 548.462 387.999 548.909 388.215 549.466C388.431 550.023 388.539 550.708 388.539 551.523V552.091H381.812V550.932H387.175C387.175 550.439 387.077 550 386.88 549.614C386.687 549.227 386.41 548.922 386.05 548.699C385.694 548.475 385.274 548.364 384.789 548.364C384.255 548.364 383.793 548.496 383.403 548.761C383.016 549.023 382.719 549.364 382.511 549.784C382.302 550.205 382.198 550.655 382.198 551.136V551.909C382.198 552.568 382.312 553.127 382.539 553.585C382.77 554.04 383.09 554.386 383.499 554.625C383.908 554.86 384.384 554.977 384.925 554.977C385.278 554.977 385.596 554.928 385.88 554.83C386.168 554.727 386.416 554.576 386.624 554.375C386.833 554.17 386.994 553.917 387.107 553.614L388.403 553.977C388.266 554.417 388.037 554.803 387.715 555.136C387.393 555.466 386.996 555.723 386.522 555.909C386.049 556.091 385.516 556.182 384.925 556.182ZM393.812 556.182C393.024 556.182 392.333 555.994 391.738 555.619C391.147 555.244 390.685 554.72 390.352 554.045C390.022 553.371 389.857 552.583 389.857 551.682C389.857 550.773 390.022 549.979 390.352 549.301C390.685 548.623 391.147 548.097 391.738 547.722C392.333 547.347 393.024 547.159 393.812 547.159C394.6 547.159 395.289 547.347 395.88 547.722C396.475 548.097 396.937 548.623 397.266 549.301C397.6 549.979 397.766 550.773 397.766 551.682C397.766 552.583 397.6 553.371 397.266 554.045C396.937 554.72 396.475 555.244 395.88 555.619C395.289 555.994 394.6 556.182 393.812 556.182ZM393.812 554.977C394.41 554.977 394.903 554.824 395.289 554.517C395.675 554.21 395.961 553.807 396.147 553.307C396.333 552.807 396.425 552.265 396.425 551.682C396.425 551.098 396.333 550.555 396.147 550.051C395.961 549.547 395.675 549.14 395.289 548.83C394.903 548.519 394.41 548.364 393.812 548.364C393.213 548.364 392.721 548.519 392.335 548.83C391.948 549.14 391.662 549.547 391.477 550.051C391.291 550.555 391.198 551.098 391.198 551.682C391.198 552.265 391.291 552.807 391.477 553.307C391.662 553.807 391.948 554.21 392.335 554.517C392.721 554.824 393.213 554.977 393.812 554.977Z" fill="white"/>
<path d="M227.453 585.139C226.797 585.139 226.212 585.027 225.698 584.801C225.188 584.576 224.782 584.263 224.48 583.862C224.182 583.457 224.02 582.988 223.993 582.455H225.246C225.272 582.783 225.385 583.066 225.584 583.305C225.783 583.54 226.043 583.722 226.365 583.852C226.686 583.981 227.042 584.045 227.433 584.045C227.871 584.045 228.259 583.969 228.597 583.817C228.935 583.664 229.2 583.452 229.392 583.18C229.584 582.909 229.681 582.594 229.681 582.236C229.681 581.861 229.588 581.531 229.402 581.246C229.217 580.958 228.945 580.733 228.587 580.57C228.229 580.408 227.791 580.327 227.274 580.327H226.459V579.233H227.274C227.679 579.233 228.033 579.16 228.338 579.014C228.646 578.868 228.887 578.663 229.059 578.398C229.235 578.133 229.323 577.821 229.323 577.463C229.323 577.118 229.246 576.818 229.094 576.563C228.941 576.308 228.726 576.109 228.448 575.967C228.173 575.824 227.848 575.753 227.473 575.753C227.122 575.753 226.79 575.817 226.479 575.947C226.171 576.073 225.919 576.257 225.723 576.499C225.528 576.737 225.422 577.026 225.405 577.364H224.212C224.232 576.83 224.392 576.363 224.694 575.962C224.996 575.557 225.39 575.242 225.877 575.017C226.368 574.792 226.906 574.679 227.493 574.679C228.123 574.679 228.663 574.807 229.114 575.062C229.565 575.314 229.911 575.647 230.153 576.061C230.395 576.475 230.516 576.923 230.516 577.403C230.516 577.977 230.365 578.466 230.063 578.87C229.765 579.274 229.359 579.554 228.845 579.71V579.79C229.488 579.896 229.99 580.169 230.352 580.61C230.713 581.048 230.894 581.589 230.894 582.236C230.894 582.789 230.743 583.286 230.441 583.727C230.143 584.165 229.735 584.509 229.218 584.761C228.701 585.013 228.113 585.139 227.453 585.139ZM235.044 585.179C234.56 585.179 234.121 585.088 233.726 584.906C233.332 584.72 233.019 584.453 232.787 584.105C232.555 583.754 232.439 583.33 232.439 582.832C232.439 582.395 232.525 582.04 232.697 581.768C232.869 581.493 233.1 581.278 233.388 581.122C233.676 580.966 233.995 580.85 234.343 580.774C234.694 580.695 235.047 580.632 235.402 580.585C235.866 580.526 236.242 580.481 236.53 580.451C236.822 580.418 237.034 580.363 237.167 580.287C237.302 580.211 237.37 580.078 237.37 579.889V579.849C237.37 579.359 237.236 578.978 236.968 578.706C236.703 578.434 236.3 578.298 235.76 578.298C235.199 578.298 234.76 578.421 234.442 578.666C234.124 578.911 233.9 579.173 233.771 579.452L232.657 579.054C232.856 578.59 233.121 578.229 233.453 577.97C233.788 577.708 234.152 577.526 234.547 577.423C234.944 577.317 235.335 577.264 235.72 577.264C235.965 577.264 236.247 577.294 236.565 577.354C236.886 577.41 237.196 577.528 237.495 577.707C237.796 577.886 238.047 578.156 238.245 578.517C238.444 578.878 238.544 579.362 238.544 579.969V585H237.37V583.966H237.311C237.231 584.132 237.099 584.309 236.913 584.498C236.727 584.687 236.48 584.848 236.172 584.98C235.864 585.113 235.488 585.179 235.044 585.179ZM235.223 584.125C235.687 584.125 236.078 584.034 236.396 583.852C236.717 583.669 236.959 583.434 237.122 583.146C237.288 582.857 237.37 582.554 237.37 582.236V581.162C237.321 581.222 237.211 581.276 237.042 581.326C236.877 581.372 236.684 581.414 236.466 581.45C236.25 581.483 236.04 581.513 235.834 581.54C235.632 581.563 235.468 581.583 235.342 581.599C235.037 581.639 234.752 581.704 234.487 581.793C234.225 581.879 234.013 582.01 233.85 582.186C233.691 582.358 233.612 582.594 233.612 582.892C233.612 583.3 233.763 583.608 234.064 583.817C234.369 584.022 234.755 584.125 235.223 584.125ZM244.711 583.409L247.376 577.364H248.489L245.188 585H244.234L240.992 577.364H242.086L244.711 583.409ZM241.708 577.364V585H240.535V577.364H241.708ZM247.714 585V577.364H248.887V585H247.714ZM254.086 585.159C253.35 585.159 252.716 584.997 252.182 584.672C251.652 584.344 251.242 583.886 250.954 583.3C250.669 582.71 250.526 582.024 250.526 581.241C250.526 580.459 250.669 579.77 250.954 579.173C251.242 578.573 251.643 578.106 252.157 577.771C252.674 577.433 253.277 577.264 253.967 577.264C254.365 577.264 254.757 577.33 255.145 577.463C255.533 577.596 255.886 577.811 256.204 578.109C256.522 578.404 256.776 578.795 256.965 579.283C257.154 579.77 257.248 580.37 257.248 581.082V581.58H251.362V580.565H256.055C256.055 580.134 255.969 579.75 255.796 579.412C255.627 579.074 255.385 578.807 255.07 578.612C254.759 578.416 254.391 578.318 253.967 578.318C253.499 578.318 253.095 578.434 252.754 578.666C252.416 578.895 252.155 579.193 251.973 579.561C251.791 579.929 251.7 580.323 251.7 580.744V581.42C251.7 581.997 251.799 582.486 251.998 582.887C252.2 583.285 252.48 583.588 252.838 583.797C253.196 584.002 253.612 584.105 254.086 584.105C254.394 584.105 254.673 584.062 254.921 583.976C255.173 583.886 255.39 583.754 255.573 583.578C255.755 583.399 255.896 583.177 255.995 582.912L257.129 583.23C257.009 583.615 256.809 583.953 256.527 584.244C256.245 584.533 255.897 584.758 255.483 584.92C255.069 585.08 254.603 585.159 254.086 585.159ZM263.993 580.645V581.739H259.777V580.645H263.993ZM260.056 577.364V585H258.882V577.364H260.056ZM264.888 577.364V585H263.715V577.364H264.888ZM268.054 583.27L271.733 577.364H273.085V585H271.912V579.094L268.253 585H266.881V577.364H268.054V583.27ZM274.045 578.457V577.364H280.249V578.457H277.743V585H276.57V578.457H274.045ZM284.615 585.159C283.88 585.159 283.245 584.997 282.711 584.672C282.181 584.344 281.772 583.886 281.483 583.3C281.198 582.71 281.056 582.024 281.056 581.241C281.056 580.459 281.198 579.77 281.483 579.173C281.772 578.573 282.173 578.106 282.686 577.771C283.203 577.433 283.807 577.264 284.496 577.264C284.894 577.264 285.287 577.33 285.674 577.463C286.062 577.596 286.415 577.811 286.733 578.109C287.051 578.404 287.305 578.795 287.494 579.283C287.683 579.77 287.777 580.37 287.777 581.082V581.58H281.891V580.565H286.584C286.584 580.134 286.498 579.75 286.326 579.412C286.157 579.074 285.915 578.807 285.6 578.612C285.288 578.416 284.92 578.318 284.496 578.318C284.029 578.318 283.624 578.434 283.283 578.666C282.945 578.895 282.685 579.193 282.502 579.561C282.32 579.929 282.229 580.323 282.229 580.744V581.42C282.229 581.997 282.328 582.486 282.527 582.887C282.73 583.285 283.01 583.588 283.368 583.797C283.725 584.002 284.141 584.105 284.615 584.105C284.924 584.105 285.202 584.062 285.451 583.976C285.703 583.886 285.92 583.754 286.102 583.578C286.284 583.399 286.425 583.177 286.525 582.912L287.658 583.23C287.539 583.615 287.338 583.953 287.056 584.244C286.775 584.533 286.427 584.758 286.012 584.92C285.598 585.08 285.132 585.159 284.615 585.159ZM293.199 585V577.364H294.372V585H293.199ZM293.795 576.091C293.567 576.091 293.37 576.013 293.204 575.857C293.041 575.701 292.96 575.514 292.96 575.295C292.96 575.077 293.041 574.889 293.204 574.734C293.37 574.578 293.567 574.5 293.795 574.5C294.024 574.5 294.22 574.578 294.382 574.734C294.548 574.889 294.631 575.077 294.631 575.295C294.631 575.514 294.548 575.701 294.382 575.857C294.22 576.013 294.024 576.091 293.795 576.091ZM299.771 577.364V578.358H295.655V577.364H299.771ZM296.888 585V576.31C296.888 575.872 296.991 575.508 297.196 575.216C297.402 574.924 297.668 574.705 297.996 574.56C298.325 574.414 298.671 574.341 299.036 574.341C299.324 574.341 299.559 574.364 299.741 574.411C299.924 574.457 300.06 574.5 300.149 574.54L299.811 575.554C299.751 575.534 299.669 575.509 299.562 575.479C299.46 575.45 299.324 575.435 299.155 575.435C298.767 575.435 298.487 575.532 298.315 575.728C298.146 575.924 298.061 576.21 298.061 576.588V585H296.888ZM301.265 585V577.364H302.399V578.517H302.478C302.618 578.139 302.869 577.833 303.234 577.597C303.599 577.362 304.01 577.244 304.467 577.244C304.553 577.244 304.661 577.246 304.79 577.249C304.919 577.253 305.017 577.258 305.083 577.264V578.457C305.044 578.447 304.953 578.433 304.81 578.413C304.671 578.389 304.523 578.378 304.368 578.378C303.996 578.378 303.665 578.456 303.373 578.612C303.085 578.764 302.856 578.976 302.687 579.248C302.521 579.516 302.439 579.823 302.439 580.168V585H301.265ZM308.571 585.179C308.087 585.179 307.648 585.088 307.254 584.906C306.859 584.72 306.546 584.453 306.314 584.105C306.082 583.754 305.966 583.33 305.966 582.832C305.966 582.395 306.052 582.04 306.224 581.768C306.397 581.493 306.627 581.278 306.915 581.122C307.204 580.966 307.522 580.85 307.87 580.774C308.221 580.695 308.574 580.632 308.929 580.585C309.393 580.526 309.769 580.481 310.058 580.451C310.349 580.418 310.561 580.363 310.694 580.287C310.83 580.211 310.898 580.078 310.898 579.889V579.849C310.898 579.359 310.763 578.978 310.495 578.706C310.23 578.434 309.827 578.298 309.287 578.298C308.727 578.298 308.288 578.421 307.969 578.666C307.651 578.911 307.428 579.173 307.298 579.452L306.185 579.054C306.384 578.59 306.649 578.229 306.98 577.97C307.315 577.708 307.679 577.526 308.074 577.423C308.472 577.317 308.863 577.264 309.247 577.264C309.492 577.264 309.774 577.294 310.092 577.354C310.414 577.41 310.724 577.528 311.022 577.707C311.324 577.886 311.574 578.156 311.773 578.517C311.972 578.878 312.071 579.362 312.071 579.969V585H310.898V583.966H310.838C310.759 584.132 310.626 584.309 310.44 584.498C310.255 584.687 310.008 584.848 309.7 584.98C309.391 585.113 309.015 585.179 308.571 585.179ZM308.75 584.125C309.214 584.125 309.605 584.034 309.923 583.852C310.245 583.669 310.487 583.434 310.649 583.146C310.815 582.857 310.898 582.554 310.898 582.236V581.162C310.848 581.222 310.739 581.276 310.57 581.326C310.404 581.372 310.212 581.414 309.993 581.45C309.777 581.483 309.567 581.513 309.362 581.54C309.159 581.563 308.995 581.583 308.869 581.599C308.564 581.639 308.279 581.704 308.014 581.793C307.752 581.879 307.54 582.01 307.378 582.186C307.219 582.358 307.139 582.594 307.139 582.892C307.139 583.3 307.29 583.608 307.592 583.817C307.897 584.022 308.283 584.125 308.75 584.125ZM314.062 585V577.364H315.196V578.557H315.295C315.454 578.149 315.711 577.833 316.066 577.607C316.42 577.379 316.846 577.264 317.343 577.264C317.847 577.264 318.266 577.379 318.601 577.607C318.939 577.833 319.203 578.149 319.392 578.557H319.471C319.667 578.162 319.96 577.849 320.351 577.617C320.742 577.382 321.211 577.264 321.758 577.264C322.441 577.264 322.999 577.478 323.434 577.906C323.868 578.33 324.085 578.991 324.085 579.889V585H322.912V579.889C322.912 579.326 322.757 578.923 322.449 578.681C322.141 578.439 321.778 578.318 321.36 578.318C320.824 578.318 320.408 578.481 320.113 578.805C319.818 579.127 319.67 579.535 319.67 580.028V585H318.477V579.77C318.477 579.336 318.336 578.986 318.054 578.721C317.773 578.452 317.41 578.318 316.966 578.318C316.661 578.318 316.376 578.399 316.11 578.562C315.849 578.724 315.636 578.95 315.474 579.238C315.315 579.523 315.235 579.853 315.235 580.227V585H314.062ZM329.281 585.159C328.546 585.159 327.911 584.997 327.377 584.672C326.847 584.344 326.438 583.886 326.149 583.3C325.864 582.71 325.722 582.024 325.722 581.241C325.722 580.459 325.864 579.77 326.149 579.173C326.438 578.573 326.839 578.106 327.352 577.771C327.869 577.433 328.473 577.264 329.162 577.264C329.56 577.264 329.953 577.33 330.34 577.463C330.728 577.596 331.081 577.811 331.399 578.109C331.718 578.404 331.971 578.795 332.16 579.283C332.349 579.77 332.443 580.37 332.443 581.082V581.58H326.557V580.565H331.25C331.25 580.134 331.164 579.75 330.992 579.412C330.823 579.074 330.581 578.807 330.266 578.612C329.954 578.416 329.586 578.318 329.162 578.318C328.695 578.318 328.29 578.434 327.949 578.666C327.611 578.895 327.351 579.193 327.169 579.561C326.986 579.929 326.895 580.323 326.895 580.744V581.42C326.895 581.997 326.994 582.486 327.193 582.887C327.396 583.285 327.676 583.588 328.034 583.797C328.392 584.002 328.807 584.105 329.281 584.105C329.59 584.105 329.868 584.062 330.117 583.976C330.369 583.886 330.586 583.754 330.768 583.578C330.95 583.399 331.091 583.177 331.191 582.912L332.324 583.23C332.205 583.615 332.004 583.953 331.722 584.244C331.441 584.533 331.093 584.758 330.678 584.92C330.264 585.08 329.798 585.159 329.281 585.159ZM343.274 579.074L342.22 579.372C342.154 579.196 342.056 579.026 341.927 578.86C341.801 578.691 341.628 578.552 341.41 578.442C341.191 578.333 340.911 578.278 340.569 578.278C340.102 578.278 339.713 578.386 339.401 578.602C339.093 578.814 338.939 579.084 338.939 579.412C338.939 579.704 339.045 579.934 339.257 580.103C339.469 580.272 339.8 580.413 340.251 580.526L341.385 580.804C342.068 580.97 342.576 581.223 342.911 581.565C343.246 581.903 343.413 582.339 343.413 582.872C343.413 583.31 343.287 583.701 343.035 584.045C342.787 584.39 342.439 584.662 341.991 584.861C341.544 585.06 341.023 585.159 340.43 585.159C339.651 585.159 339.007 584.99 338.496 584.652C337.986 584.314 337.663 583.82 337.527 583.17L338.64 582.892C338.747 583.303 338.947 583.611 339.242 583.817C339.54 584.022 339.93 584.125 340.41 584.125C340.957 584.125 341.391 584.009 341.713 583.777C342.038 583.542 342.2 583.26 342.2 582.932C342.2 582.667 342.107 582.445 341.922 582.266C341.736 582.083 341.451 581.947 341.067 581.858L339.794 581.56C339.095 581.394 338.581 581.137 338.253 580.789C337.928 580.438 337.765 579.999 337.765 579.472C337.765 579.041 337.886 578.66 338.128 578.328C338.374 577.997 338.707 577.737 339.128 577.548C339.552 577.359 340.032 577.264 340.569 577.264C341.325 577.264 341.918 577.43 342.349 577.761C342.783 578.093 343.092 578.53 343.274 579.074ZM345.029 585V577.364H346.162V578.517H346.242C346.381 578.139 346.633 577.833 346.998 577.597C347.362 577.362 347.773 577.244 348.231 577.244C348.317 577.244 348.425 577.246 348.554 577.249C348.683 577.253 348.781 577.258 348.847 577.264V578.457C348.807 578.447 348.716 578.433 348.574 578.413C348.434 578.389 348.287 578.378 348.131 578.378C347.76 578.378 347.429 578.456 347.137 578.612C346.849 578.764 346.62 578.976 346.451 579.248C346.285 579.516 346.202 579.823 346.202 580.168V585H345.029ZM352.957 585.159C352.241 585.159 351.625 584.99 351.108 584.652C350.591 584.314 350.193 583.848 349.915 583.255C349.636 582.662 349.497 581.984 349.497 581.222C349.497 580.446 349.64 579.762 349.925 579.168C350.213 578.572 350.614 578.106 351.128 577.771C351.645 577.433 352.248 577.264 352.938 577.264C353.474 577.264 353.958 577.364 354.389 577.562C354.82 577.761 355.173 578.04 355.448 578.398C355.723 578.756 355.894 579.173 355.96 579.651H354.787C354.697 579.303 354.499 578.994 354.19 578.726C353.885 578.454 353.474 578.318 352.957 578.318C352.5 578.318 352.099 578.437 351.754 578.676C351.413 578.911 351.146 579.245 350.954 579.675C350.765 580.103 350.67 580.605 350.67 581.182C350.67 581.772 350.763 582.286 350.949 582.723C351.138 583.161 351.403 583.5 351.744 583.742C352.089 583.984 352.493 584.105 352.957 584.105C353.262 584.105 353.539 584.052 353.788 583.946C354.036 583.84 354.247 583.688 354.419 583.489C354.591 583.29 354.714 583.051 354.787 582.773H355.96C355.894 583.223 355.73 583.629 355.468 583.991C355.21 584.349 354.866 584.634 354.439 584.846C354.015 585.055 353.521 585.159 352.957 585.159ZM366.423 580.645V581.739H362.207V580.645H366.423ZM362.485 577.364V585H361.312V577.364H362.485ZM367.318 577.364V585H366.145V577.364H367.318ZM371.557 585.179C371.073 585.179 370.634 585.088 370.24 584.906C369.845 584.72 369.532 584.453 369.3 584.105C369.068 583.754 368.952 583.33 368.952 582.832C368.952 582.395 369.038 582.04 369.211 581.768C369.383 581.493 369.613 581.278 369.902 581.122C370.19 580.966 370.508 580.85 370.856 580.774C371.208 580.695 371.561 580.632 371.915 580.585C372.379 580.526 372.756 580.481 373.044 580.451C373.336 580.418 373.548 580.363 373.68 580.287C373.816 580.211 373.884 580.078 373.884 579.889V579.849C373.884 579.359 373.75 578.978 373.481 578.706C373.216 578.434 372.814 578.298 372.273 578.298C371.713 578.298 371.274 578.421 370.956 578.666C370.638 578.911 370.414 579.173 370.285 579.452L369.171 579.054C369.37 578.59 369.635 578.229 369.966 577.97C370.301 577.708 370.666 577.526 371.06 577.423C371.458 577.317 371.849 577.264 372.233 577.264C372.479 577.264 372.76 577.294 373.079 577.354C373.4 577.41 373.71 577.528 374.008 577.707C374.31 577.886 374.56 578.156 374.759 578.517C374.958 578.878 375.057 579.362 375.057 579.969V585H373.884V583.966H373.824C373.745 584.132 373.612 584.309 373.427 584.498C373.241 584.687 372.994 584.848 372.686 584.98C372.378 585.113 372.001 585.179 371.557 585.179ZM371.736 584.125C372.2 584.125 372.591 584.034 372.91 583.852C373.231 583.669 373.473 583.434 373.635 583.146C373.801 582.857 373.884 582.554 373.884 582.236V581.162C373.834 581.222 373.725 581.276 373.556 581.326C373.39 581.372 373.198 581.414 372.979 581.45C372.764 581.483 372.553 581.513 372.348 581.54C372.146 581.563 371.982 581.583 371.856 581.599C371.551 581.639 371.266 581.704 371.001 581.793C370.739 581.879 370.527 582.01 370.364 582.186C370.205 582.358 370.126 582.594 370.126 582.892C370.126 583.3 370.276 583.608 370.578 583.817C370.883 584.022 371.269 584.125 371.736 584.125ZM383.938 585.159C383.222 585.159 382.605 584.99 382.088 584.652C381.571 584.314 381.174 583.848 380.895 583.255C380.617 582.662 380.478 581.984 380.478 581.222C380.478 580.446 380.62 579.762 380.905 579.168C381.194 578.572 381.595 578.106 382.108 577.771C382.625 577.433 383.229 577.264 383.918 577.264C384.455 577.264 384.939 577.364 385.37 577.562C385.801 577.761 386.154 578.04 386.429 578.398C386.704 578.756 386.874 579.173 386.941 579.651H385.767C385.678 579.303 385.479 578.994 385.171 578.726C384.866 578.454 384.455 578.318 383.938 578.318C383.48 578.318 383.079 578.437 382.735 578.676C382.393 578.911 382.127 579.245 381.934 579.675C381.745 580.103 381.651 580.605 381.651 581.182C381.651 581.772 381.744 582.286 381.929 582.723C382.118 583.161 382.383 583.5 382.725 583.742C383.069 583.984 383.474 584.105 383.938 584.105C384.243 584.105 384.52 584.052 384.768 583.946C385.017 583.84 385.227 583.688 385.4 583.489C385.572 583.29 385.694 583.051 385.767 582.773H386.941C386.874 583.223 386.71 583.629 386.449 583.991C386.19 584.349 385.847 584.634 385.419 584.846C384.995 585.055 384.501 585.159 383.938 585.159ZM391.608 585.159C390.892 585.159 390.275 584.99 389.758 584.652C389.241 584.314 388.844 583.848 388.565 583.255C388.287 582.662 388.148 581.984 388.148 581.222C388.148 580.446 388.29 579.762 388.575 579.168C388.863 578.572 389.265 578.106 389.778 577.771C390.295 577.433 390.898 577.264 391.588 577.264C392.125 577.264 392.609 577.364 393.04 577.562C393.47 577.761 393.823 578.04 394.099 578.398C394.374 578.756 394.544 579.173 394.611 579.651H393.437C393.348 579.303 393.149 578.994 392.841 578.726C392.536 578.454 392.125 578.318 391.608 578.318C391.15 578.318 390.749 578.437 390.405 578.676C390.063 578.911 389.796 579.245 389.604 579.675C389.415 580.103 389.321 580.605 389.321 581.182C389.321 581.772 389.414 582.286 389.599 582.723C389.788 583.161 390.053 583.5 390.395 583.742C390.739 583.984 391.144 584.105 391.608 584.105C391.913 584.105 392.189 584.052 392.438 583.946C392.687 583.84 392.897 583.688 393.069 583.489C393.242 583.29 393.364 583.051 393.437 582.773H394.611C394.544 583.223 394.38 583.629 394.118 583.991C393.86 584.349 393.517 584.634 393.089 584.846C392.665 585.055 392.171 585.159 391.608 585.159ZM397.19 580.128H399.377C400.272 580.128 400.956 580.355 401.43 580.809C401.904 581.263 402.141 581.838 402.141 582.534C402.141 582.991 402.035 583.407 401.823 583.782C401.611 584.153 401.299 584.45 400.888 584.672C400.478 584.891 399.974 585 399.377 585H396.175V577.364H397.349V583.906H399.377C399.841 583.906 400.222 583.784 400.521 583.538C400.819 583.293 400.968 582.978 400.968 582.594C400.968 582.189 400.819 581.86 400.521 581.604C400.222 581.349 399.841 581.222 399.377 581.222H397.19V580.128ZM403.354 585V577.364H404.528V585H403.354ZM405.849 585V583.906H406.127C406.356 583.906 406.547 583.862 406.699 583.772C406.852 583.679 406.974 583.518 407.067 583.29C407.163 583.058 407.236 582.736 407.286 582.325C407.339 581.911 407.377 581.384 407.4 580.744L407.539 577.364H412.63V585H411.457V578.457H408.653L408.534 581.182C408.507 581.808 408.451 582.36 408.365 582.837C408.282 583.311 408.154 583.709 407.982 584.031C407.813 584.352 407.587 584.594 407.306 584.756C407.024 584.919 406.671 585 406.247 585H405.849ZM414.632 585V577.364H415.806V580.685H416.581L419.326 577.364H420.837L417.755 581.043L420.877 585H419.365L416.86 581.778H415.806V585H414.632ZM422.757 587.864C422.558 587.864 422.381 587.847 422.225 587.814C422.07 587.784 421.962 587.754 421.902 587.724L422.2 586.69C422.485 586.763 422.737 586.79 422.956 586.77C423.175 586.75 423.369 586.652 423.538 586.477C423.71 586.304 423.868 586.024 424.01 585.636L424.229 585.04L421.405 577.364H422.678L424.786 583.449H424.865L426.973 577.364H428.246L425.004 586.114C424.859 586.508 424.678 586.835 424.463 587.093C424.247 587.355 423.997 587.549 423.712 587.675C423.43 587.801 423.112 587.864 422.757 587.864ZM433.431 585V577.364H436.553C437.375 577.364 438.028 577.549 438.512 577.92C438.996 578.292 439.238 578.782 439.238 579.392C439.238 579.856 439.101 580.216 438.825 580.471C438.55 580.723 438.197 580.893 437.767 580.983C438.048 581.023 438.322 581.122 438.587 581.281C438.855 581.44 439.077 581.659 439.253 581.938C439.429 582.213 439.517 582.551 439.517 582.952C439.517 583.343 439.417 583.692 439.218 584.001C439.019 584.309 438.734 584.553 438.363 584.732C437.992 584.911 437.548 585 437.031 585H433.431ZM434.545 583.926H437.031C437.435 583.926 437.752 583.83 437.98 583.638C438.209 583.446 438.323 583.184 438.323 582.852C438.323 582.458 438.209 582.148 437.98 581.923C437.752 581.694 437.435 581.58 437.031 581.58H434.545V583.926ZM434.545 580.565H436.553C436.868 580.565 437.138 580.522 437.364 580.436C437.589 580.347 437.762 580.221 437.881 580.058C438.003 579.893 438.065 579.697 438.065 579.472C438.065 579.15 437.931 578.898 437.662 578.716C437.394 578.53 437.024 578.438 436.553 578.438H434.545V580.565ZM443.389 585.179C442.905 585.179 442.466 585.088 442.072 584.906C441.677 584.72 441.364 584.453 441.132 584.105C440.9 583.754 440.784 583.33 440.784 582.832C440.784 582.395 440.87 582.04 441.043 581.768C441.215 581.493 441.445 581.278 441.734 581.122C442.022 580.966 442.34 580.85 442.688 580.774C443.04 580.695 443.393 580.632 443.747 580.585C444.211 580.526 444.588 580.481 444.876 580.451C445.168 580.418 445.38 580.363 445.512 580.287C445.648 580.211 445.716 580.078 445.716 579.889V579.849C445.716 579.359 445.582 578.978 445.313 578.706C445.048 578.434 444.646 578.298 444.105 578.298C443.545 578.298 443.106 578.421 442.788 578.666C442.47 578.911 442.246 579.173 442.117 579.452L441.003 579.054C441.202 578.59 441.467 578.229 441.798 577.97C442.133 577.708 442.498 577.526 442.892 577.423C443.29 577.317 443.681 577.264 444.066 577.264C444.311 577.264 444.593 577.294 444.911 577.354C445.232 577.41 445.542 577.528 445.84 577.707C446.142 577.886 446.392 578.156 446.591 578.517C446.79 578.878 446.889 579.362 446.889 579.969V585H445.716V583.966H445.656C445.577 584.132 445.444 584.309 445.259 584.498C445.073 584.687 444.826 584.848 444.518 584.98C444.21 585.113 443.834 585.179 443.389 585.179ZM443.568 584.125C444.032 584.125 444.423 584.034 444.742 583.852C445.063 583.669 445.305 583.434 445.468 583.146C445.633 582.857 445.716 582.554 445.716 582.236V581.162C445.666 581.222 445.557 581.276 445.388 581.326C445.222 581.372 445.03 581.414 444.811 581.45C444.596 581.483 444.385 581.513 444.18 581.54C443.978 581.563 443.814 581.583 443.688 581.599C443.383 581.639 443.098 581.704 442.833 581.793C442.571 581.879 442.359 582.01 442.196 582.186C442.037 582.358 441.958 582.594 441.958 582.892C441.958 583.3 442.108 583.608 442.41 583.817C442.715 584.022 443.101 584.125 443.568 584.125ZM448.881 577.364H450.054V583.906H452.937V577.364H454.111V583.906H456.994V577.364H458.167V585H448.881V577.364ZM463.362 585.159C462.626 585.159 461.991 584.997 461.457 584.672C460.927 584.344 460.518 583.886 460.229 583.3C459.944 582.71 459.802 582.024 459.802 581.241C459.802 580.459 459.944 579.77 460.229 579.173C460.518 578.573 460.919 578.106 461.433 577.771C461.95 577.433 462.553 577.264 463.242 577.264C463.64 577.264 464.033 577.33 464.42 577.463C464.808 577.596 465.161 577.811 465.479 578.109C465.798 578.404 466.051 578.795 466.24 579.283C466.429 579.77 466.523 580.37 466.523 581.082V581.58H460.637V580.565H465.33C465.33 580.134 465.244 579.75 465.072 579.412C464.903 579.074 464.661 578.807 464.346 578.612C464.034 578.416 463.666 578.318 463.242 578.318C462.775 578.318 462.371 578.434 462.029 578.666C461.691 578.895 461.431 579.193 461.249 579.561C461.066 579.929 460.975 580.323 460.975 580.744V581.42C460.975 581.997 461.075 582.486 461.273 582.887C461.476 583.285 461.756 583.588 462.114 583.797C462.472 584.002 462.888 584.105 463.362 584.105C463.67 584.105 463.948 584.062 464.197 583.976C464.449 583.886 464.666 583.754 464.848 583.578C465.03 583.399 465.171 583.177 465.271 582.912L466.404 583.23C466.285 583.615 466.084 583.953 465.803 584.244C465.521 584.533 465.173 584.758 464.759 584.92C464.344 585.08 463.879 585.159 463.362 585.159ZM472.871 577.364V578.457H469.331V585H468.158V577.364H472.871ZM477.139 585.159C476.45 585.159 475.845 584.995 475.324 584.667C474.807 584.339 474.403 583.88 474.111 583.29C473.823 582.7 473.679 582.01 473.679 581.222C473.679 580.426 473.823 579.732 474.111 579.138C474.403 578.545 474.807 578.085 475.324 577.756C475.845 577.428 476.45 577.264 477.139 577.264C477.828 577.264 478.432 577.428 478.949 577.756C479.469 578.085 479.873 578.545 480.162 579.138C480.453 579.732 480.599 580.426 480.599 581.222C480.599 582.01 480.453 582.7 480.162 583.29C479.873 583.88 479.469 584.339 478.949 584.667C478.432 584.995 477.828 585.159 477.139 585.159ZM477.139 584.105C477.663 584.105 478.094 583.971 478.432 583.702C478.77 583.434 479.02 583.081 479.182 582.643C479.345 582.206 479.426 581.732 479.426 581.222C479.426 580.711 479.345 580.236 479.182 579.795C479.02 579.354 478.77 578.998 478.432 578.726C478.094 578.454 477.663 578.318 477.139 578.318C476.615 578.318 476.184 578.454 475.846 578.726C475.508 578.998 475.258 579.354 475.096 579.795C474.933 580.236 474.852 580.711 474.852 581.222C474.852 581.732 474.933 582.206 475.096 582.643C475.258 583.081 475.508 583.434 475.846 583.702C476.184 583.971 476.615 584.105 477.139 584.105ZM309.385 595.912V594.818H317.021V595.912H313.82V605H312.587V595.912H309.385ZM318.615 605V597.364H319.788V605H318.615ZM319.211 596.091C318.983 596.091 318.786 596.013 318.62 595.857C318.457 595.701 318.376 595.514 318.376 595.295C318.376 595.077 318.457 594.889 318.62 594.734C318.786 594.578 318.983 594.5 319.211 594.5C319.44 594.5 319.636 594.578 319.798 594.734C319.964 594.889 320.047 595.077 320.047 595.295C320.047 595.514 319.964 595.701 319.798 595.857C319.636 596.013 319.44 596.091 319.211 596.091ZM322.881 602.216L322.861 600.764H323.099L326.44 597.364H327.892L324.332 600.963H324.233L322.881 602.216ZM321.787 605V594.818H322.96V605H321.787ZM326.639 605L323.656 601.222L324.491 600.406L328.131 605H326.639ZM328.061 595.912V594.818H335.697V595.912H332.496V605H331.263V595.912H328.061ZM339.286 605.159C338.596 605.159 337.991 604.995 337.471 604.667C336.954 604.339 336.549 603.88 336.258 603.29C335.969 602.7 335.825 602.01 335.825 601.222C335.825 600.426 335.969 599.732 336.258 599.138C336.549 598.545 336.954 598.085 337.471 597.756C337.991 597.428 338.596 597.264 339.286 597.264C339.975 597.264 340.578 597.428 341.095 597.756C341.616 598.085 342.02 598.545 342.308 599.138C342.6 599.732 342.746 600.426 342.746 601.222C342.746 602.01 342.6 602.7 342.308 603.29C342.02 603.88 341.616 604.339 341.095 604.667C340.578 604.995 339.975 605.159 339.286 605.159ZM339.286 604.105C339.809 604.105 340.24 603.971 340.578 603.702C340.916 603.434 341.166 603.081 341.329 602.643C341.491 602.206 341.572 601.732 341.572 601.222C341.572 600.711 341.491 600.236 341.329 599.795C341.166 599.354 340.916 598.998 340.578 598.726C340.24 598.454 339.809 598.318 339.286 598.318C338.762 598.318 338.331 598.454 337.993 598.726C337.655 598.998 337.405 599.354 337.242 599.795C337.08 600.236 336.999 600.711 336.999 601.222C336.999 601.732 337.08 602.206 337.242 602.643C337.405 603.081 337.655 603.434 337.993 603.702C338.331 603.971 338.762 604.105 339.286 604.105ZM345.48 602.216L345.46 600.764H345.699L349.04 597.364H350.491L346.932 600.963H346.832L345.48 602.216ZM344.386 605V594.818H345.56V605H344.386ZM349.239 605L346.256 601.222L347.091 600.406L350.73 605H349.239ZM355.638 605V597.364H358.76C359.582 597.364 360.235 597.549 360.719 597.92C361.203 598.292 361.445 598.782 361.445 599.392C361.445 599.856 361.308 600.216 361.032 600.471C360.757 600.723 360.404 600.893 359.974 600.983C360.255 601.023 360.529 601.122 360.794 601.281C361.062 601.44 361.284 601.659 361.46 601.938C361.636 602.213 361.724 602.551 361.724 602.952C361.724 603.343 361.624 603.692 361.425 604.001C361.226 604.309 360.941 604.553 360.57 604.732C360.199 604.911 359.755 605 359.238 605H355.638ZM356.752 603.926H359.238C359.642 603.926 359.959 603.83 360.187 603.638C360.416 603.446 360.53 603.184 360.53 602.852C360.53 602.458 360.416 602.148 360.187 601.923C359.959 601.694 359.642 601.58 359.238 601.58H356.752V603.926ZM356.752 600.565H358.76C359.075 600.565 359.345 600.522 359.571 600.436C359.796 600.347 359.969 600.221 360.088 600.058C360.211 599.893 360.272 599.697 360.272 599.472C360.272 599.15 360.138 598.898 359.869 598.716C359.601 598.53 359.231 598.438 358.76 598.438H356.752V600.565ZM364.523 603.27L368.202 597.364H369.554V605H368.381V599.094L364.721 605H363.349V597.364H364.523V603.27ZM370.737 607.188V603.906H371.373C371.529 603.744 371.663 603.568 371.776 603.379C371.889 603.19 371.987 602.967 372.069 602.708C372.156 602.446 372.229 602.128 372.288 601.754C372.348 601.376 372.401 600.92 372.447 600.386L372.706 597.364H377.558V603.906H378.731V607.188H377.558V605H371.91V607.188H370.737ZM372.706 603.906H376.385V598.457H373.8L373.601 600.386C373.518 601.185 373.415 601.883 373.292 602.479C373.17 603.076 372.974 603.552 372.706 603.906ZM383.34 605.159C382.604 605.159 381.97 604.997 381.436 604.672C380.906 604.344 380.496 603.886 380.208 603.3C379.923 602.71 379.78 602.024 379.78 601.241C379.78 600.459 379.923 599.77 380.208 599.173C380.496 598.573 380.897 598.106 381.411 597.771C381.928 597.433 382.531 597.264 383.221 597.264C383.618 597.264 384.011 597.33 384.399 597.463C384.787 597.596 385.14 597.811 385.458 598.109C385.776 598.404 386.03 598.795 386.219 599.283C386.407 599.77 386.502 600.37 386.502 601.082V601.58H380.616V600.565H385.309C385.309 600.134 385.223 599.75 385.05 599.412C384.881 599.074 384.639 598.807 384.324 598.612C384.013 598.416 383.645 598.318 383.221 598.318C382.753 598.318 382.349 598.434 382.008 598.666C381.67 598.895 381.409 599.193 381.227 599.561C381.045 599.929 380.954 600.323 380.954 600.744V601.42C380.954 601.997 381.053 602.486 381.252 602.887C381.454 603.285 381.734 603.588 382.092 603.797C382.45 604.002 382.866 604.105 383.34 604.105C383.648 604.105 383.927 604.062 384.175 603.976C384.427 603.886 384.644 603.754 384.827 603.578C385.009 603.399 385.15 603.177 385.249 602.912L386.383 603.23C386.263 603.615 386.063 603.953 385.781 604.244C385.499 604.533 385.151 604.758 384.737 604.92C384.323 605.08 383.857 605.159 383.34 605.159ZM391.239 605.159C390.549 605.159 389.944 604.995 389.424 604.667C388.907 604.339 388.503 603.88 388.211 603.29C387.923 602.7 387.778 602.01 387.778 601.222C387.778 600.426 387.923 599.732 388.211 599.138C388.503 598.545 388.907 598.085 389.424 597.756C389.944 597.428 390.549 597.264 391.239 597.264C391.928 597.264 392.531 597.428 393.048 597.756C393.569 598.085 393.973 598.545 394.261 599.138C394.553 599.732 394.699 600.426 394.699 601.222C394.699 602.01 394.553 602.7 394.261 603.29C393.973 603.88 393.569 604.339 393.048 604.667C392.531 604.995 391.928 605.159 391.239 605.159ZM391.239 604.105C391.762 604.105 392.193 603.971 392.531 603.702C392.869 603.434 393.12 603.081 393.282 602.643C393.444 602.206 393.526 601.732 393.526 601.222C393.526 600.711 393.444 600.236 393.282 599.795C393.12 599.354 392.869 598.998 392.531 598.726C392.193 598.454 391.762 598.318 391.239 598.318C390.715 598.318 390.284 598.454 389.946 598.726C389.608 598.998 389.358 599.354 389.195 599.795C389.033 600.236 388.952 600.711 388.952 601.222C388.952 601.732 389.033 602.206 389.195 602.643C389.358 603.081 389.608 603.434 389.946 603.702C390.284 603.971 390.715 604.105 391.239 604.105Z" fill="white" fill-opacity="0.8"/>
<path d="M184.281 636C184.281 630.477 188.758 626 194.281 626H509.719C515.242 626 519.719 630.477 519.719 636V648C519.719 653.523 515.242 658 509.719 658H194.281C188.758 658 184.281 653.523 184.281 648V636Z" fill="black" fill-opacity="0.2"/>
<path d="M224.223 643.062V647H223.217V638.273H224.223V641.477H224.308C224.462 641.139 224.692 640.871 224.999 640.672C225.308 640.47 225.72 640.369 226.234 640.369C226.68 640.369 227.071 640.459 227.406 640.638C227.741 640.814 228.001 641.085 228.186 641.452C228.374 641.815 228.467 642.278 228.467 642.841V647H227.462V642.909C227.462 642.389 227.327 641.987 227.057 641.703C226.79 641.416 226.419 641.273 225.945 641.273C225.615 641.273 225.32 641.342 225.058 641.482C224.8 641.621 224.595 641.824 224.445 642.091C224.297 642.358 224.223 642.682 224.223 643.062ZM233.154 640.455V641.307H229.762V640.455H233.154ZM230.75 638.886H231.756V645.125C231.756 645.409 231.797 645.622 231.88 645.764C231.965 645.903 232.073 645.997 232.203 646.045C232.337 646.091 232.478 646.114 232.625 646.114C232.736 646.114 232.827 646.108 232.898 646.097C232.969 646.082 233.026 646.071 233.069 646.062L233.273 646.966C233.205 646.991 233.11 647.017 232.988 647.043C232.865 647.071 232.711 647.085 232.523 647.085C232.239 647.085 231.961 647.024 231.688 646.902C231.418 646.78 231.194 646.594 231.015 646.344C230.838 646.094 230.75 645.778 230.75 645.398V638.886ZM237.513 640.455V641.307H234.121V640.455H237.513ZM235.11 638.886H236.115V645.125C236.115 645.409 236.157 645.622 236.239 645.764C236.324 645.903 236.432 645.997 236.563 646.045C236.696 646.091 236.837 646.114 236.985 646.114C237.096 646.114 237.186 646.108 237.257 646.097C237.328 646.082 237.385 646.071 237.428 646.062L237.632 646.966C237.564 646.991 237.469 647.017 237.347 647.043C237.225 647.071 237.07 647.085 236.882 647.085C236.598 647.085 236.32 647.024 236.047 646.902C235.777 646.78 235.553 646.594 235.374 646.344C235.198 646.094 235.11 645.778 235.11 645.398V638.886ZM239.026 649.455V640.455H239.998V641.494H240.117C240.191 641.381 240.293 641.236 240.424 641.06C240.557 640.881 240.748 640.722 240.995 640.582C241.245 640.44 241.583 640.369 242.009 640.369C242.56 640.369 243.046 640.507 243.466 640.783C243.887 641.058 244.215 641.449 244.451 641.955C244.686 642.46 244.804 643.057 244.804 643.744C244.804 644.438 244.686 645.038 244.451 645.547C244.215 646.053 243.888 646.445 243.471 646.723C243.053 646.999 242.571 647.136 242.026 647.136C241.605 647.136 241.269 647.067 241.016 646.928C240.763 646.786 240.569 646.625 240.432 646.446C240.296 646.264 240.191 646.114 240.117 645.994H240.032V649.455H239.026ZM240.015 643.727C240.015 644.222 240.087 644.658 240.232 645.036C240.377 645.411 240.588 645.705 240.867 645.918C241.145 646.128 241.486 646.233 241.89 646.233C242.31 646.233 242.661 646.122 242.942 645.901C243.226 645.676 243.439 645.375 243.581 644.997C243.726 644.616 243.799 644.193 243.799 643.727C243.799 643.267 243.728 642.852 243.586 642.483C243.446 642.111 243.235 641.817 242.951 641.601C242.669 641.382 242.316 641.273 241.89 641.273C241.48 641.273 241.137 641.376 240.858 641.584C240.58 641.788 240.37 642.075 240.228 642.445C240.086 642.811 240.015 643.239 240.015 643.727ZM250.975 641.92L250.071 642.176C250.015 642.026 249.931 641.879 249.82 641.737C249.712 641.592 249.564 641.473 249.377 641.379C249.189 641.286 248.949 641.239 248.657 641.239C248.256 641.239 247.922 641.331 247.655 641.516C247.391 641.697 247.259 641.929 247.259 642.21C247.259 642.46 247.35 642.658 247.532 642.803C247.713 642.947 247.998 643.068 248.384 643.165L249.355 643.403C249.941 643.545 250.377 643.763 250.664 644.055C250.951 644.345 251.094 644.719 251.094 645.176C251.094 645.551 250.986 645.886 250.77 646.182C250.557 646.477 250.259 646.71 249.875 646.881C249.492 647.051 249.046 647.136 248.537 647.136C247.87 647.136 247.317 646.991 246.88 646.702C246.442 646.412 246.165 645.989 246.049 645.432L247.003 645.193C247.094 645.545 247.266 645.81 247.519 645.986C247.775 646.162 248.108 646.25 248.52 646.25C248.989 646.25 249.361 646.151 249.637 645.952C249.915 645.75 250.054 645.509 250.054 645.227C250.054 645 249.975 644.81 249.816 644.656C249.657 644.5 249.412 644.384 249.083 644.307L247.992 644.051C247.392 643.909 246.952 643.689 246.671 643.391C246.392 643.089 246.253 642.713 246.253 642.261C246.253 641.892 246.357 641.565 246.564 641.281C246.775 640.997 247.06 640.774 247.421 640.612C247.784 640.45 248.196 640.369 248.657 640.369C249.304 640.369 249.813 640.511 250.182 640.795C250.554 641.08 250.819 641.455 250.975 641.92ZM253.341 647.068C253.131 647.068 252.95 646.993 252.8 646.842C252.649 646.692 252.574 646.511 252.574 646.301C252.574 646.091 252.649 645.911 252.8 645.76C252.95 645.609 253.131 645.534 253.341 645.534C253.551 645.534 253.732 645.609 253.882 645.76C254.033 645.911 254.108 646.091 254.108 646.301C254.108 646.44 254.072 646.568 254.001 646.685C253.933 646.801 253.841 646.895 253.724 646.966C253.611 647.034 253.483 647.068 253.341 647.068ZM253.341 642.21C253.131 642.21 252.95 642.135 252.8 641.984C252.649 641.834 252.574 641.653 252.574 641.443C252.574 641.233 252.649 641.053 252.8 640.902C252.95 640.751 253.131 640.676 253.341 640.676C253.551 640.676 253.732 640.751 253.882 640.902C254.033 641.053 254.108 641.233 254.108 641.443C254.108 641.582 254.072 641.71 254.001 641.827C253.933 641.943 253.841 642.037 253.724 642.108C253.611 642.176 253.483 642.21 253.341 642.21ZM258.998 637.864L256.185 648.312H255.265L258.077 637.864H258.998ZM263.275 637.864L260.463 648.312H259.542L262.355 637.864H263.275ZM265.95 647L263.956 640.455H265.013L266.428 645.466H266.496L267.893 640.455H268.967L270.348 645.449H270.416L271.831 640.455H272.888L270.893 647H269.905L268.473 641.972H268.371L266.939 647H265.95ZM275.7 647L273.706 640.455H274.763L276.178 645.466H276.246L277.643 640.455H278.717L280.098 645.449H280.166L281.581 640.455H282.638L280.643 647H279.655L278.223 641.972H278.121L276.689 647H275.7ZM285.45 647L283.456 640.455H284.513L285.928 645.466H285.996L287.393 640.455H288.467L289.848 645.449H289.916L291.331 640.455H292.388L290.393 647H289.405L287.973 641.972H287.871L286.439 647H285.45ZM293.56 647.068C293.349 647.068 293.169 646.993 293.018 646.842C292.868 646.692 292.793 646.511 292.793 646.301C292.793 646.091 292.868 645.911 293.018 645.76C293.169 645.609 293.349 645.534 293.56 645.534C293.77 645.534 293.95 645.609 294.101 645.76C294.251 645.911 294.327 646.091 294.327 646.301C294.327 646.44 294.291 646.568 294.22 646.685C294.152 646.801 294.06 646.895 293.943 646.966C293.83 647.034 293.702 647.068 293.56 647.068ZM298.978 640.455V641.307H295.586V640.455H298.978ZM296.575 638.886H297.58V645.125C297.58 645.409 297.621 645.622 297.704 645.764C297.789 645.903 297.897 645.997 298.028 646.045C298.161 646.091 298.302 646.114 298.45 646.114C298.56 646.114 298.651 646.108 298.722 646.097C298.793 646.082 298.85 646.071 298.893 646.062L299.097 646.966C299.029 646.991 298.934 647.017 298.812 647.043C298.69 647.071 298.535 647.085 298.347 647.085C298.063 647.085 297.785 647.024 297.512 646.902C297.242 646.78 297.018 646.594 296.839 646.344C296.663 646.094 296.575 645.778 296.575 645.398V638.886ZM300.491 647V640.455H301.496V647H300.491ZM301.002 639.364C300.806 639.364 300.637 639.297 300.495 639.163C300.356 639.03 300.286 638.869 300.286 638.682C300.286 638.494 300.356 638.334 300.495 638.2C300.637 638.067 300.806 638 301.002 638C301.198 638 301.366 638.067 301.505 638.2C301.647 638.334 301.718 638.494 301.718 638.682C301.718 638.869 301.647 639.03 301.505 639.163C301.366 639.297 301.198 639.364 301.002 639.364ZM304.276 644.614L304.259 643.369H304.463L307.327 640.455H308.571L305.52 643.54H305.435L304.276 644.614ZM303.338 647V638.273H304.344V647H303.338ZM307.498 647L304.941 643.761L305.657 643.062L308.776 647H307.498ZM312.712 640.455V641.307H309.32V640.455H312.712ZM310.309 638.886H311.315V645.125C311.315 645.409 311.356 645.622 311.438 645.764C311.523 645.903 311.631 645.997 311.762 646.045C311.896 646.091 312.036 646.114 312.184 646.114C312.295 646.114 312.386 646.108 312.457 646.097C312.528 646.082 312.585 646.071 312.627 646.062L312.832 646.966C312.763 646.991 312.668 647.017 312.546 647.043C312.424 647.071 312.269 647.085 312.082 647.085C311.798 647.085 311.519 647.024 311.246 646.902C310.977 646.78 310.752 646.594 310.573 646.344C310.397 646.094 310.309 645.778 310.309 645.398V638.886ZM316.814 647.136C316.223 647.136 315.705 646.996 315.259 646.714C314.815 646.433 314.469 646.04 314.219 645.534C313.972 645.028 313.848 644.437 313.848 643.761C313.848 643.08 313.972 642.484 314.219 641.976C314.469 641.467 314.815 641.072 315.259 640.791C315.705 640.51 316.223 640.369 316.814 640.369C317.405 640.369 317.922 640.51 318.365 640.791C318.811 641.072 319.158 641.467 319.405 641.976C319.655 642.484 319.78 643.08 319.78 643.761C319.78 644.437 319.655 645.028 319.405 645.534C319.158 646.04 318.811 646.433 318.365 646.714C317.922 646.996 317.405 647.136 316.814 647.136ZM316.814 646.233C317.263 646.233 317.632 646.118 317.922 645.888C318.212 645.658 318.426 645.355 318.565 644.98C318.705 644.605 318.774 644.199 318.774 643.761C318.774 643.324 318.705 642.916 318.565 642.538C318.426 642.161 318.212 641.855 317.922 641.622C317.632 641.389 317.263 641.273 316.814 641.273C316.365 641.273 315.996 641.389 315.706 641.622C315.416 641.855 315.202 642.161 315.062 642.538C314.923 642.916 314.854 643.324 314.854 643.761C314.854 644.199 314.923 644.605 315.062 644.98C315.202 645.355 315.416 645.658 315.706 645.888C315.996 646.118 316.365 646.233 316.814 646.233ZM322.252 644.614L322.235 643.369H322.44L325.304 640.455H326.548L323.497 643.54H323.412L322.252 644.614ZM321.315 647V638.273H322.321V647H321.315ZM325.474 647L322.917 643.761L323.633 643.062L326.752 647H325.474ZM328.575 647.068C328.365 647.068 328.185 646.993 328.034 646.842C327.884 646.692 327.808 646.511 327.808 646.301C327.808 646.091 327.884 645.911 328.034 645.76C328.185 645.609 328.365 645.534 328.575 645.534C328.786 645.534 328.966 645.609 329.116 645.76C329.267 645.911 329.342 646.091 329.342 646.301C329.342 646.44 329.307 646.568 329.236 646.685C329.168 646.801 329.075 646.895 328.959 646.966C328.845 647.034 328.717 647.068 328.575 647.068ZM333.806 647.136C333.192 647.136 332.664 646.991 332.221 646.702C331.778 646.412 331.437 646.013 331.198 645.504C330.96 644.996 330.84 644.415 330.84 643.761C330.84 643.097 330.962 642.51 331.207 642.001C331.454 641.49 331.798 641.091 332.238 640.804C332.681 640.514 333.198 640.369 333.789 640.369C334.249 640.369 334.664 640.455 335.033 640.625C335.403 640.795 335.705 641.034 335.941 641.341C336.177 641.648 336.323 642.006 336.38 642.415H335.374C335.298 642.116 335.127 641.852 334.863 641.622C334.602 641.389 334.249 641.273 333.806 641.273C333.414 641.273 333.07 641.375 332.775 641.58C332.482 641.781 332.254 642.067 332.089 642.436C331.927 642.803 331.846 643.233 331.846 643.727C331.846 644.233 331.925 644.673 332.085 645.048C332.246 645.423 332.474 645.714 332.766 645.922C333.062 646.129 333.408 646.233 333.806 646.233C334.067 646.233 334.305 646.188 334.518 646.097C334.731 646.006 334.911 645.875 335.059 645.705C335.207 645.534 335.312 645.33 335.374 645.091H336.38C336.323 645.477 336.183 645.825 335.958 646.135C335.737 646.442 335.442 646.686 335.076 646.868C334.712 647.047 334.289 647.136 333.806 647.136ZM340.509 647.136C339.918 647.136 339.4 646.996 338.954 646.714C338.511 646.433 338.164 646.04 337.914 645.534C337.667 645.028 337.543 644.437 337.543 643.761C337.543 643.08 337.667 642.484 337.914 641.976C338.164 641.467 338.511 641.072 338.954 640.791C339.4 640.51 339.918 640.369 340.509 640.369C341.1 640.369 341.617 640.51 342.06 640.791C342.506 641.072 342.853 641.467 343.1 641.976C343.35 642.484 343.475 643.08 343.475 643.761C343.475 644.437 343.35 645.028 343.1 645.534C342.853 646.04 342.506 646.433 342.06 646.714C341.617 646.996 341.1 647.136 340.509 647.136ZM340.509 646.233C340.958 646.233 341.327 646.118 341.617 645.888C341.907 645.658 342.121 645.355 342.261 644.98C342.4 644.605 342.469 644.199 342.469 643.761C342.469 643.324 342.4 642.916 342.261 642.538C342.121 642.161 341.907 641.855 341.617 641.622C341.327 641.389 340.958 641.273 340.509 641.273C340.06 641.273 339.691 641.389 339.401 641.622C339.112 641.855 338.897 642.161 338.758 642.538C338.619 642.916 338.549 643.324 338.549 643.761C338.549 644.199 338.619 644.605 338.758 644.98C338.897 645.355 339.112 645.658 339.401 645.888C339.691 646.118 340.06 646.233 340.509 646.233ZM345.01 647V640.455H345.982V641.477H346.067C346.203 641.128 346.424 640.857 346.728 640.663C347.032 640.467 347.397 640.369 347.823 640.369C348.255 640.369 348.614 640.467 348.901 640.663C349.191 640.857 349.417 641.128 349.578 641.477H349.647C349.814 641.139 350.066 640.871 350.401 640.672C350.736 640.47 351.138 640.369 351.607 640.369C352.192 640.369 352.671 640.553 353.043 640.919C353.415 641.283 353.601 641.849 353.601 642.619V647H352.596V642.619C352.596 642.136 352.463 641.791 352.199 641.584C351.935 641.376 351.624 641.273 351.266 641.273C350.806 641.273 350.449 641.412 350.196 641.69C349.944 641.966 349.817 642.315 349.817 642.739V647H348.794V642.517C348.794 642.145 348.674 641.845 348.432 641.618C348.191 641.388 347.88 641.273 347.499 641.273C347.238 641.273 346.993 641.342 346.766 641.482C346.542 641.621 346.36 641.814 346.221 642.061C346.084 642.305 346.016 642.588 346.016 642.909V647H345.01ZM358.525 637.864L355.713 648.312H354.792L357.605 637.864H358.525ZM362.462 647.136C361.831 647.136 361.287 646.997 360.83 646.719C360.375 646.438 360.024 646.045 359.777 645.543C359.533 645.037 359.411 644.449 359.411 643.778C359.411 643.108 359.533 642.517 359.777 642.006C360.024 641.491 360.368 641.091 360.808 640.804C361.251 640.514 361.768 640.369 362.359 640.369C362.7 640.369 363.037 640.426 363.369 640.54C363.702 640.653 364.004 640.838 364.277 641.094C364.55 641.347 364.767 641.682 364.929 642.099C365.091 642.517 365.172 643.031 365.172 643.642V644.068H360.126V643.199H364.149C364.149 642.83 364.075 642.5 363.928 642.21C363.783 641.92 363.575 641.692 363.305 641.524C363.038 641.357 362.723 641.273 362.359 641.273C361.959 641.273 361.612 641.372 361.32 641.571C361.03 641.767 360.807 642.023 360.651 642.338C360.494 642.653 360.416 642.991 360.416 643.352V643.932C360.416 644.426 360.501 644.845 360.672 645.189C360.845 645.53 361.085 645.79 361.392 645.969C361.699 646.145 362.055 646.233 362.462 646.233C362.726 646.233 362.964 646.196 363.178 646.122C363.393 646.045 363.58 645.932 363.736 645.781C363.892 645.628 364.013 645.437 364.098 645.21L365.07 645.483C364.967 645.812 364.795 646.102 364.554 646.352C364.313 646.599 364.014 646.793 363.659 646.932C363.304 647.068 362.905 647.136 362.462 647.136ZM366.702 647V640.455H367.673V641.477H367.759C367.895 641.128 368.115 640.857 368.419 640.663C368.723 640.467 369.088 640.369 369.514 640.369C369.946 640.369 370.305 640.467 370.592 640.663C370.882 640.857 371.108 641.128 371.27 641.477H371.338C371.506 641.139 371.757 640.871 372.092 640.672C372.428 640.47 372.83 640.369 373.298 640.369C373.884 640.369 374.362 640.553 374.734 640.919C375.107 641.283 375.293 641.849 375.293 642.619V647H374.287V642.619C374.287 642.136 374.155 641.791 373.891 641.584C373.626 641.376 373.315 641.273 372.957 641.273C372.497 641.273 372.141 641.412 371.888 641.69C371.635 641.966 371.509 642.315 371.509 642.739V647H370.486V642.517C370.486 642.145 370.365 641.845 370.124 641.618C369.882 641.388 369.571 641.273 369.19 641.273C368.929 641.273 368.685 641.342 368.457 641.482C368.233 641.621 368.051 641.814 367.912 642.061C367.776 642.305 367.707 642.588 367.707 642.909V647H366.702ZM377.268 647V638.273H378.273V641.494H378.359C378.433 641.381 378.535 641.236 378.665 641.06C378.799 640.881 378.989 640.722 379.237 640.582C379.487 640.44 379.825 640.369 380.251 640.369C380.802 640.369 381.288 640.507 381.708 640.783C382.129 641.058 382.457 641.449 382.692 641.955C382.928 642.46 383.046 643.057 383.046 643.744C383.046 644.438 382.928 645.038 382.692 645.547C382.457 646.053 382.13 646.445 381.712 646.723C381.295 646.999 380.813 647.136 380.268 647.136C379.847 647.136 379.511 647.067 379.258 646.928C379.005 646.786 378.81 646.625 378.674 646.446C378.538 646.264 378.433 646.114 378.359 645.994H378.239V647H377.268ZM378.256 643.727C378.256 644.222 378.329 644.658 378.474 645.036C378.619 645.411 378.83 645.705 379.109 645.918C379.387 646.128 379.728 646.233 380.131 646.233C380.552 646.233 380.903 646.122 381.184 645.901C381.468 645.676 381.681 645.375 381.823 644.997C381.968 644.616 382.04 644.193 382.04 643.727C382.04 643.267 381.969 642.852 381.827 642.483C381.688 642.111 381.477 641.817 381.192 641.601C380.911 641.382 380.558 641.273 380.131 641.273C379.722 641.273 379.379 641.376 379.1 641.584C378.822 641.788 378.612 642.075 378.469 642.445C378.327 642.811 378.256 643.239 378.256 643.727ZM387.329 647.136C386.698 647.136 386.154 646.997 385.697 646.719C385.242 646.438 384.891 646.045 384.644 645.543C384.4 645.037 384.278 644.449 384.278 643.778C384.278 643.108 384.4 642.517 384.644 642.006C384.891 641.491 385.235 641.091 385.675 640.804C386.119 640.514 386.636 640.369 387.227 640.369C387.567 640.369 387.904 640.426 388.237 640.54C388.569 640.653 388.871 640.838 389.144 641.094C389.417 641.347 389.634 641.682 389.796 642.099C389.958 642.517 390.039 643.031 390.039 643.642V644.068H384.994V643.199H389.016C389.016 642.83 388.942 642.5 388.795 642.21C388.65 641.92 388.442 641.692 388.173 641.524C387.906 641.357 387.59 641.273 387.227 641.273C386.826 641.273 386.479 641.372 386.187 641.571C385.897 641.767 385.674 642.023 385.518 642.338C385.362 642.653 385.283 642.991 385.283 643.352V643.932C385.283 644.426 385.369 644.845 385.539 645.189C385.712 645.53 385.952 645.79 386.259 645.969C386.566 646.145 386.923 646.233 387.329 646.233C387.593 646.233 387.832 646.196 388.045 646.122C388.261 646.045 388.447 645.932 388.603 645.781C388.759 645.628 388.88 645.437 388.965 645.21L389.937 645.483C389.835 645.812 389.663 646.102 389.421 646.352C389.18 646.599 388.881 646.793 388.526 646.932C388.171 647.068 387.772 647.136 387.329 647.136ZM394.04 647.136C393.495 647.136 393.013 646.999 392.596 646.723C392.178 646.445 391.852 646.053 391.616 645.547C391.38 645.038 391.262 644.438 391.262 643.744C391.262 643.057 391.38 642.46 391.616 641.955C391.852 641.449 392.18 641.058 392.6 640.783C393.021 640.507 393.506 640.369 394.058 640.369C394.484 640.369 394.82 640.44 395.067 640.582C395.317 640.722 395.508 640.881 395.638 641.06C395.772 641.236 395.876 641.381 395.95 641.494H396.035V638.273H397.04V647H396.069V645.994H395.95C395.876 646.114 395.771 646.264 395.634 646.446C395.498 646.625 395.303 646.786 395.05 646.928C394.798 647.067 394.461 647.136 394.04 647.136ZM394.177 646.233C394.58 646.233 394.921 646.128 395.2 645.918C395.478 645.705 395.69 645.411 395.835 645.036C395.979 644.658 396.052 644.222 396.052 643.727C396.052 643.239 395.981 642.811 395.839 642.445C395.697 642.075 395.487 641.788 395.208 641.584C394.93 641.376 394.586 641.273 394.177 641.273C393.751 641.273 393.396 641.382 393.112 641.601C392.83 641.817 392.619 642.111 392.477 642.483C392.337 642.852 392.268 643.267 392.268 643.727C392.268 644.193 392.339 644.616 392.481 644.997C392.626 645.375 392.839 645.676 393.12 645.901C393.404 646.122 393.756 646.233 394.177 646.233ZM402.107 637.864L399.295 648.312H398.374L401.187 637.864H402.107ZM408.652 640.455L406.231 647H405.208L402.788 640.455H403.879L405.686 645.67H405.754L407.561 640.455H408.652ZM409.962 647V646.233L412.843 643.08C413.181 642.71 413.459 642.389 413.678 642.116C413.897 641.841 414.059 641.582 414.164 641.341C414.272 641.097 414.326 640.841 414.326 640.574C414.326 640.267 414.252 640.001 414.104 639.777C413.959 639.553 413.76 639.379 413.507 639.257C413.255 639.135 412.971 639.074 412.655 639.074C412.32 639.074 412.027 639.143 411.777 639.283C411.53 639.419 411.338 639.611 411.202 639.858C411.069 640.105 411.002 640.395 411.002 640.727H409.996C409.996 640.216 410.114 639.767 410.35 639.381C410.586 638.994 410.907 638.693 411.313 638.477C411.722 638.261 412.181 638.153 412.689 638.153C413.201 638.153 413.654 638.261 414.049 638.477C414.444 638.693 414.753 638.984 414.978 639.351C415.202 639.717 415.314 640.125 415.314 640.574C415.314 640.895 415.256 641.209 415.14 641.516C415.026 641.82 414.827 642.159 414.543 642.534C414.262 642.906 413.871 643.361 413.371 643.898L411.411 645.994V646.062H415.468V647H409.962ZM420.33 637.864L417.517 648.312H416.597L419.409 637.864H420.33ZM422.016 648.091V637.182H424.539V638.017H422.971V647.256H424.539V648.091H422.016ZM426.364 638.273L428.955 645.619H429.057L431.648 638.273H432.756L429.551 647H428.461L425.256 638.273H426.364ZM435.172 638.273V647H434.115V638.273H435.172ZM439.984 647H437.291V638.273H440.104C440.95 638.273 441.675 638.447 442.277 638.797C442.879 639.143 443.341 639.642 443.662 640.293C443.983 640.94 444.143 641.716 444.143 642.619C444.143 643.528 443.982 644.311 443.658 644.967C443.334 645.621 442.862 646.124 442.243 646.476C441.624 646.825 440.871 647 439.984 647ZM438.348 646.062H439.916C440.638 646.062 441.236 645.923 441.71 645.645C442.185 645.366 442.538 644.97 442.771 644.456C443.004 643.942 443.121 643.33 443.121 642.619C443.121 641.915 443.006 641.308 442.776 640.8C442.545 640.288 442.202 639.896 441.744 639.624C441.287 639.348 440.717 639.21 440.036 639.21H438.348V646.062ZM445.916 647V638.273H451.183V639.21H446.973V642.159H450.911V643.097H446.973V646.062H451.251V647H445.916ZM460.452 642.636C460.452 643.557 460.286 644.352 459.953 645.023C459.621 645.693 459.165 646.21 458.585 646.574C458.006 646.938 457.344 647.119 456.599 647.119C455.855 647.119 455.193 646.938 454.614 646.574C454.034 646.21 453.578 645.693 453.246 645.023C452.913 644.352 452.747 643.557 452.747 642.636C452.747 641.716 452.913 640.92 453.246 640.25C453.578 639.58 454.034 639.062 454.614 638.699C455.193 638.335 455.855 638.153 456.599 638.153C457.344 638.153 458.006 638.335 458.585 638.699C459.165 639.062 459.621 639.58 459.953 640.25C460.286 640.92 460.452 641.716 460.452 642.636ZM459.429 642.636C459.429 641.881 459.303 641.243 459.05 640.723C458.8 640.203 458.46 639.81 458.031 639.543C457.605 639.276 457.128 639.142 456.599 639.142C456.071 639.142 455.592 639.276 455.163 639.543C454.737 639.81 454.398 640.203 454.145 640.723C453.895 641.243 453.77 641.881 453.77 642.636C453.77 643.392 453.895 644.03 454.145 644.55C454.398 645.07 454.737 645.463 455.163 645.73C455.592 645.997 456.071 646.131 456.599 646.131C457.128 646.131 457.605 645.997 458.031 645.73C458.46 645.463 458.8 645.07 459.05 644.55C459.303 644.03 459.429 643.392 459.429 642.636ZM466.129 647V647.938H460.674V647H466.129ZM468.231 638.273V647H467.174V638.273H468.231ZM473.043 647H470.35V638.273H473.162C474.009 638.273 474.733 638.447 475.336 638.797C475.938 639.143 476.4 639.642 476.721 640.293C477.042 640.94 477.202 641.716 477.202 642.619C477.202 643.528 477.04 644.311 476.716 644.967C476.392 645.621 475.921 646.124 475.301 646.476C474.682 646.825 473.929 647 473.043 647ZM471.407 646.062H472.975C473.696 646.062 474.294 645.923 474.769 645.645C475.243 645.366 475.597 644.97 475.83 644.456C476.063 643.942 476.179 643.33 476.179 642.619C476.179 641.915 476.064 641.308 475.834 640.8C475.604 640.288 475.26 639.896 474.803 639.624C474.346 639.348 473.776 639.21 473.094 639.21H471.407V646.062ZM480.85 637.182V648.091H478.327V647.256H479.895V638.017H478.327V637.182H480.85Z" fill="white" fill-opacity="0.6"/>
</g>
</g>
<path d="M288 1002C288 1000.9 288.895 1000 290 1000H414C415.105 1000 416 1000.9 416 1002C416 1003.1 415.105 1004 414 1004H290C288.895 1004 288 1003.1 288 1002Z" fill="white" fill-opacity="0.3"/>
<path d="M272 104H432V108C432 121.255 421.255 132 408 132H296C282.745 132 272 121.255 272 108V104Z" fill="black"/>
<path d="M320 118C320 116.343 321.343 115 323 115H381C382.657 115 384 116.343 384 118C384 119.657 382.657 121 381 121H323C321.343 121 320 119.657 320 118Z" fill="#1E2939"/>
</g>
<defs>
<filter id="filter0_f_70_502" x="0" y="0" width="704" height="1180" filterUnits="userSpaceOnUse" color-interpolation-filters="sRGB">
<feFlood flood-opacity="0" result="BackgroundImageFix"/>
<feBlend mode="normal" in="SourceGraphic" in2="BackgroundImageFix" result="shape"/>
<feGaussianBlur stdDeviation="64" result="effect1_foregroundBlur_70_502"/>
</filter>
<filter id="filter1_d_70_502" x="90" y="83" width="524" height="1000" filterUnits="userSpaceOnUse" color-interpolation-filters="sRGB">
<feFlood flood-opacity="0" result="BackgroundImageFix"/>
<feColorMatrix in="SourceAlpha" type="matrix" values="0 0 0 0 0 0 0 0 0 0 0 0 0 0 0 0 0 0 127 0" result="hardAlpha"/>
<feMorphology radius="12" operator="erode" in="SourceAlpha" result="effect1_dropShadow_70_502"/>
<feOffset dy="25"/>
<feGaussianBlur stdDeviation="25"/>
<feComposite in2="hardAlpha" operator="out"/>
<feColorMatrix type="matrix" values="0 0 0 0 0 0 0 0 0 0 0 0 0 0 0 0 0 0 0.25 0"/>
<feBlend mode="normal" in2="BackgroundImageFix" result="effect1_dropShadow_70_502"/>
<feBlend mode="normal" in="SourceGraphic" in2="effect1_dropShadow_70_502" result="shape"/>
</filter>
<filter id="filter2_i_70_502" x="148" y="116" width="408" height="886" filterUnits="userSpaceOnUse" color-interpolation-filters="sRGB">
<feFlood flood-opacity="0" result="BackgroundImageFix"/>
<feBlend mode="normal" in="SourceGraphic" in2="BackgroundImageFix" result="shape"/>
<feColorMatrix in="SourceAlpha" type="matrix" values="0 0 0 0 0 0 0 0 0 0 0 0 0 0 0 0 0 0 127 0" result="hardAlpha"/>
<feOffset dy="2"/>
<feGaussianBlur stdDeviation="2"/>
<feComposite in2="hardAlpha" operator="arithmetic" k2="-1" k3="1"/>
<feColorMatrix type="matrix" values="0 0 0 0 0 0 0 0 0 0 0 0 0 0 0 0 0 0 0.05 0"/>
<feBlend mode="normal" in2="shape" result="effect1_innerShadow_70_502"/>
</filter>
<linearGradient id="paint0_linear_70_502" x1="128" y1="96" x2="853.46" y2="447.738" gradientUnits="userSpaceOnUse">
<stop stop-color="#101828"/>
<stop offset="0.5" stop-color="#1E2939"/>
<stop offset="1"/>
</linearGradient>
<linearGradient id="paint1_linear_70_502" x1="0" y1="0" x2="672.702" y2="310.478" gradientUnits="userSpaceOnUse">
<stop stop-color="#101828"/>
<stop offset="1"/>
</linearGradient>
<linearGradient id="paint2_linear_70_502" x1="0" y1="0" x2="672.702" y2="310.478" gradientUnits="userSpaceOnUse">
<stop stop-color="#1A1A1A" stop-opacity="0.9"/>
<stop offset="1" stop-color="#1A1A1A" stop-opacity="0.8"/>
</linearGradient>
<clipPath id="clip0_70_502">
<path d="M148 156C148 133.909 165.909 116 188 116H516C538.091 116 556 133.909 556 156V960C556 982.091 538.091 1000 516 1000H188C165.909 1000 148 982.091 148 960V156Z" fill="white"/>
</clipPath>
</defs>
</svg>
