<svg width="448" height="924" viewBox="0 0 448 924" fill="none" xmlns="http://www.w3.org/2000/svg">
<mask id="path-1-inside-1_70_504" fill="white">
<path d="M0 48C0 21.4904 21.4903 0 48 0H400C426.51 0 448 21.4903 448 48V876C448 902.51 426.51 924 400 924H48C21.4903 924 0 902.51 0 876V48Z"/>
</mask>
<path d="M0 48C0 21.4904 21.4903 0 48 0H400C426.51 0 448 21.4903 448 48V876C448 902.51 426.51 924 400 924H48C21.4903 924 0 902.51 0 876V48Z" fill="url(#paint0_linear_70_504)"/>
<path d="M48 0V8H400V0V-8H48V0ZM448 48H440V876H448H456V48H448ZM400 924V916H48V924V932H400V924ZM0 876H8V48H0H-8V876H0ZM48 924V916C25.9086 916 8 898.091 8 876H0H-8C-8 906.928 17.0721 932 48 932V924ZM448 876H440C440 898.091 422.091 916 400 916V924V932C430.928 932 456 906.928 456 876H448ZM400 0V8C422.091 8 440 25.9086 440 48H448H456C456 17.0721 430.928 -8 400 -8V0ZM48 0V-8C17.0721 -8 -8 17.0721 -8 48H0H8C8 25.9086 25.9086 8 48 8V0Z" fill="#101828" mask="url(#path-1-inside-1_70_504)"/>
<g filter="url(#filter0_i_70_504)">
<g clip-path="url(#clip0_70_504)">
<path d="M20 60C20 37.9086 37.9086 20 60 20H388C410.091 20 428 37.9086 428 60V864C428 886.091 410.091 904 388 904H60C37.9086 904 20 886.091 20 864V60Z"/>
<rect width="408" height="884" transform="translate(20 20)" fill="black"/>
<rect width="408" height="884" transform="translate(20 20)" fill="url(#paint1_linear_70_504)"/>
<rect width="408" height="884" transform="translate(20 20)" fill="url(#paint2_linear_70_504)"/>
<g opacity="0.862084">
<path d="M205.333 375.333C205.333 374.395 205.58 373.473 206.05 372.661C206.52 371.849 207.196 371.175 208.01 370.707C208.823 370.24 209.746 369.995 210.684 369.999C211.623 370.002 212.544 370.252 213.354 370.725L245.346 389.387C246.154 389.855 246.824 390.527 247.29 391.336C247.756 392.145 248.002 393.062 248.003 393.995C248.004 394.929 247.76 395.846 247.295 396.655C246.83 397.465 246.161 398.138 245.354 398.608L213.354 417.275C212.544 417.748 211.623 417.998 210.684 418.002C209.746 418.005 208.823 417.76 208.01 417.293C207.196 416.825 206.52 416.152 206.05 415.339C205.58 414.527 205.333 413.605 205.333 412.667V375.333Z" stroke="#FDB71A" stroke-width="5.33333" stroke-linecap="round" stroke-linejoin="round"/>
</g>
<path d="M177.781 449.614V448.364H186.508V449.614H182.849V460H181.44V449.614H177.781ZM188.188 460V451.273H189.529V460H188.188ZM188.87 449.818C188.609 449.818 188.383 449.729 188.194 449.551C188.008 449.373 187.915 449.159 187.915 448.909C187.915 448.659 188.008 448.445 188.194 448.267C188.383 448.089 188.609 448 188.87 448C189.131 448 189.355 448.089 189.54 448.267C189.73 448.445 189.825 448.659 189.825 448.909C189.825 449.159 189.73 449.373 189.54 449.551C189.355 449.729 189.131 449.818 188.87 449.818ZM192.923 456.818L192.9 455.159H193.173L196.991 451.273H198.65L194.582 455.386H194.468L192.923 456.818ZM191.673 460V448.364H193.013V460H191.673ZM197.218 460L193.809 455.682L194.763 454.75L198.923 460H197.218ZM198.702 449.614V448.364H207.43V449.614H203.771V460H202.362V449.614H198.702ZM211.39 460.182C210.602 460.182 209.911 459.994 209.316 459.619C208.725 459.244 208.263 458.72 207.93 458.045C207.6 457.371 207.435 456.583 207.435 455.682C207.435 454.773 207.6 453.979 207.93 453.301C208.263 452.623 208.725 452.097 209.316 451.722C209.911 451.347 210.602 451.159 211.39 451.159C212.178 451.159 212.867 451.347 213.458 451.722C214.053 452.097 214.515 452.623 214.844 453.301C215.178 453.979 215.344 454.773 215.344 455.682C215.344 456.583 215.178 457.371 214.844 458.045C214.515 458.72 214.053 459.244 213.458 459.619C212.867 459.994 212.178 460.182 211.39 460.182ZM211.39 458.977C211.988 458.977 212.481 458.824 212.867 458.517C213.254 458.21 213.54 457.807 213.725 457.307C213.911 456.807 214.004 456.265 214.004 455.682C214.004 455.098 213.911 454.555 213.725 454.051C213.54 453.547 213.254 453.14 212.867 452.83C212.481 452.519 211.988 452.364 211.39 452.364C210.791 452.364 210.299 452.519 209.913 452.83C209.526 453.14 209.24 453.547 209.055 454.051C208.869 454.555 208.776 455.098 208.776 455.682C208.776 456.265 208.869 456.807 209.055 457.307C209.24 457.807 209.526 458.21 209.913 458.517C210.299 458.824 210.791 458.977 211.39 458.977ZM218.329 456.818L218.306 455.159H218.579L222.397 451.273H224.056L219.988 455.386H219.874L218.329 456.818ZM217.079 460V448.364H218.42V460H217.079ZM222.624 460L219.215 455.682L220.17 454.75L224.329 460H222.624ZM230.316 448.364L233.771 458.159H233.907L237.362 448.364H238.839L234.566 460H233.112L228.839 448.364H230.316ZM240.157 460V451.273H241.498V460H240.157ZM240.839 449.818C240.577 449.818 240.352 449.729 240.163 449.551C239.977 449.373 239.884 449.159 239.884 448.909C239.884 448.659 239.977 448.445 240.163 448.267C240.352 448.089 240.577 448 240.839 448C241.1 448 241.324 448.089 241.509 448.267C241.699 448.445 241.793 448.659 241.793 448.909C241.793 449.159 241.699 449.373 241.509 449.551C241.324 449.729 241.1 449.818 240.839 449.818ZM246.937 460.182C246.21 460.182 245.567 459.998 245.011 459.631C244.454 459.259 244.018 458.737 243.704 458.062C243.389 457.384 243.232 456.583 243.232 455.659C243.232 454.742 243.389 453.947 243.704 453.273C244.018 452.598 244.456 452.078 245.016 451.71C245.577 451.343 246.225 451.159 246.96 451.159C247.528 451.159 247.977 451.254 248.306 451.443C248.639 451.629 248.893 451.841 249.067 452.08C249.246 452.314 249.384 452.508 249.482 452.659H249.596V448.364H250.937V460H249.641V458.659H249.482C249.384 458.818 249.244 459.019 249.062 459.261C248.88 459.5 248.621 459.714 248.283 459.903C247.946 460.089 247.497 460.182 246.937 460.182ZM247.119 458.977C247.656 458.977 248.111 458.837 248.482 458.557C248.853 458.273 249.136 457.881 249.329 457.381C249.522 456.877 249.619 456.295 249.619 455.636C249.619 454.985 249.524 454.415 249.335 453.926C249.145 453.434 248.865 453.051 248.494 452.778C248.122 452.502 247.664 452.364 247.119 452.364C246.55 452.364 246.077 452.509 245.698 452.801C245.323 453.089 245.041 453.481 244.852 453.977C244.666 454.47 244.573 455.023 244.573 455.636C244.573 456.258 244.668 456.822 244.857 457.33C245.05 457.833 245.335 458.235 245.71 458.534C246.088 458.83 246.558 458.977 247.119 458.977ZM256.925 460.182C256.085 460.182 255.359 459.996 254.749 459.625C254.143 459.25 253.675 458.727 253.346 458.057C253.02 457.383 252.857 456.598 252.857 455.705C252.857 454.811 253.02 454.023 253.346 453.341C253.675 452.655 254.134 452.121 254.721 451.739C255.312 451.352 256.001 451.159 256.789 451.159C257.244 451.159 257.692 451.235 258.136 451.386C258.579 451.538 258.982 451.784 259.346 452.125C259.71 452.462 259.999 452.909 260.215 453.466C260.431 454.023 260.539 454.708 260.539 455.523V456.091H253.812V454.932H259.175C259.175 454.439 259.077 454 258.88 453.614C258.687 453.227 258.41 452.922 258.05 452.699C257.694 452.475 257.274 452.364 256.789 452.364C256.255 452.364 255.793 452.496 255.403 452.761C255.016 453.023 254.719 453.364 254.511 453.784C254.302 454.205 254.198 454.655 254.198 455.136V455.909C254.198 456.568 254.312 457.127 254.539 457.585C254.77 458.04 255.09 458.386 255.499 458.625C255.908 458.86 256.384 458.977 256.925 458.977C257.278 458.977 257.596 458.928 257.88 458.83C258.168 458.727 258.416 458.576 258.624 458.375C258.833 458.17 258.994 457.917 259.107 457.614L260.403 457.977C260.266 458.417 260.037 458.803 259.715 459.136C259.393 459.466 258.996 459.723 258.522 459.909C258.049 460.091 257.516 460.182 256.925 460.182ZM265.812 460.182C265.024 460.182 264.333 459.994 263.738 459.619C263.147 459.244 262.685 458.72 262.352 458.045C262.022 457.371 261.857 456.583 261.857 455.682C261.857 454.773 262.022 453.979 262.352 453.301C262.685 452.623 263.147 452.097 263.738 451.722C264.333 451.347 265.024 451.159 265.812 451.159C266.6 451.159 267.289 451.347 267.88 451.722C268.475 452.097 268.937 452.623 269.266 453.301C269.6 453.979 269.766 454.773 269.766 455.682C269.766 456.583 269.6 457.371 269.266 458.045C268.937 458.72 268.475 459.244 267.88 459.619C267.289 459.994 266.6 460.182 265.812 460.182ZM265.812 458.977C266.41 458.977 266.903 458.824 267.289 458.517C267.675 458.21 267.961 457.807 268.147 457.307C268.333 456.807 268.425 456.265 268.425 455.682C268.425 455.098 268.333 454.555 268.147 454.051C267.961 453.547 267.675 453.14 267.289 452.83C266.903 452.519 266.41 452.364 265.812 452.364C265.213 452.364 264.721 452.519 264.335 452.83C263.948 453.14 263.662 453.547 263.477 454.051C263.291 454.555 263.198 455.098 263.198 455.682C263.198 456.265 263.291 456.807 263.477 457.307C263.662 457.807 263.948 458.21 264.335 458.517C264.721 458.824 265.213 458.977 265.812 458.977Z" fill="white"/>
<path d="M99.4533 489.139C98.7971 489.139 98.2121 489.027 97.6983 488.801C97.1879 488.576 96.7819 488.263 96.4803 487.862C96.182 487.457 96.0196 486.988 95.9931 486.455H97.2459C97.2724 486.783 97.3851 487.066 97.584 487.305C97.7828 487.54 98.043 487.722 98.3645 487.852C98.686 487.981 99.0423 488.045 99.4334 488.045C99.8709 488.045 100.259 487.969 100.597 487.817C100.935 487.664 101.2 487.452 101.392 487.18C101.584 486.909 101.681 486.594 101.681 486.236C101.681 485.861 101.588 485.531 101.402 485.246C101.217 484.958 100.945 484.733 100.587 484.57C100.229 484.408 99.7914 484.327 99.2743 484.327H98.459V483.233H99.2743C99.6787 483.233 100.033 483.16 100.338 483.014C100.646 482.868 100.887 482.663 101.059 482.398C101.235 482.133 101.323 481.821 101.323 481.463C101.323 481.118 101.246 480.818 101.094 480.563C100.941 480.308 100.726 480.109 100.448 479.967C100.173 479.824 99.8477 479.753 99.4732 479.753C99.1219 479.753 98.7904 479.817 98.4789 479.947C98.1706 480.073 97.9187 480.257 97.7232 480.499C97.5276 480.737 97.4216 481.026 97.405 481.364H96.2118C96.2317 480.83 96.3925 480.363 96.6941 479.962C96.9957 479.557 97.3901 479.242 97.8773 479.017C98.3678 478.792 98.9064 478.679 99.4931 478.679C100.123 478.679 100.663 478.807 101.114 479.062C101.565 479.314 101.911 479.647 102.153 480.061C102.395 480.475 102.516 480.923 102.516 481.403C102.516 481.977 102.365 482.466 102.063 482.87C101.765 483.274 101.359 483.554 100.845 483.71V483.79C101.488 483.896 101.99 484.169 102.352 484.61C102.713 485.048 102.894 485.589 102.894 486.236C102.894 486.789 102.743 487.286 102.441 487.727C102.143 488.165 101.735 488.509 101.218 488.761C100.701 489.013 100.113 489.139 99.4533 489.139ZM107.044 489.179C106.56 489.179 106.121 489.088 105.726 488.906C105.332 488.72 105.019 488.453 104.787 488.105C104.555 487.754 104.439 487.33 104.439 486.832C104.439 486.395 104.525 486.04 104.697 485.768C104.869 485.493 105.1 485.278 105.388 485.122C105.676 484.966 105.995 484.85 106.343 484.774C106.694 484.695 107.047 484.632 107.402 484.585C107.866 484.526 108.242 484.481 108.53 484.451C108.822 484.418 109.034 484.363 109.167 484.287C109.302 484.211 109.37 484.078 109.37 483.889V483.849C109.37 483.359 109.236 482.978 108.968 482.706C108.703 482.434 108.3 482.298 107.76 482.298C107.199 482.298 106.76 482.421 106.442 482.666C106.124 482.911 105.9 483.173 105.771 483.452L104.657 483.054C104.856 482.59 105.121 482.229 105.453 481.97C105.788 481.708 106.152 481.526 106.547 481.423C106.944 481.317 107.335 481.264 107.72 481.264C107.965 481.264 108.247 481.294 108.565 481.354C108.886 481.41 109.196 481.528 109.495 481.707C109.796 481.886 110.047 482.156 110.245 482.517C110.444 482.878 110.544 483.362 110.544 483.969V489H109.37V487.966H109.311C109.231 488.132 109.099 488.309 108.913 488.498C108.727 488.687 108.48 488.848 108.172 488.98C107.864 489.113 107.488 489.179 107.044 489.179ZM107.223 488.125C107.687 488.125 108.078 488.034 108.396 487.852C108.717 487.669 108.959 487.434 109.122 487.146C109.288 486.857 109.37 486.554 109.37 486.236V485.162C109.321 485.222 109.211 485.276 109.042 485.326C108.877 485.372 108.684 485.414 108.466 485.45C108.25 485.483 108.04 485.513 107.834 485.54C107.632 485.563 107.468 485.583 107.342 485.599C107.037 485.639 106.752 485.704 106.487 485.793C106.225 485.879 106.013 486.01 105.85 486.186C105.691 486.358 105.612 486.594 105.612 486.892C105.612 487.3 105.763 487.608 106.064 487.817C106.369 488.022 106.755 488.125 107.223 488.125ZM116.711 487.409L119.376 481.364H120.489L117.188 489H116.234L112.992 481.364H114.086L116.711 487.409ZM113.708 481.364V489H112.535V481.364H113.708ZM119.714 489V481.364H120.887V489H119.714ZM126.086 489.159C125.35 489.159 124.716 488.997 124.182 488.672C123.652 488.344 123.242 487.886 122.954 487.3C122.669 486.71 122.526 486.024 122.526 485.241C122.526 484.459 122.669 483.77 122.954 483.173C123.242 482.573 123.643 482.106 124.157 481.771C124.674 481.433 125.277 481.264 125.967 481.264C126.365 481.264 126.757 481.33 127.145 481.463C127.533 481.596 127.886 481.811 128.204 482.109C128.522 482.404 128.776 482.795 128.965 483.283C129.154 483.77 129.248 484.37 129.248 485.082V485.58H123.362V484.565H128.055C128.055 484.134 127.969 483.75 127.796 483.412C127.627 483.074 127.385 482.807 127.07 482.612C126.759 482.416 126.391 482.318 125.967 482.318C125.499 482.318 125.095 482.434 124.754 482.666C124.416 482.895 124.155 483.193 123.973 483.561C123.791 483.929 123.7 484.323 123.7 484.744V485.42C123.7 485.997 123.799 486.486 123.998 486.887C124.2 487.285 124.48 487.588 124.838 487.797C125.196 488.002 125.612 488.105 126.086 488.105C126.394 488.105 126.673 488.062 126.921 487.976C127.173 487.886 127.39 487.754 127.573 487.578C127.755 487.399 127.896 487.177 127.995 486.912L129.129 487.23C129.009 487.615 128.809 487.953 128.527 488.244C128.245 488.533 127.897 488.758 127.483 488.92C127.069 489.08 126.603 489.159 126.086 489.159ZM135.993 484.645V485.739H131.777V484.645H135.993ZM132.056 481.364V489H130.882V481.364H132.056ZM136.888 481.364V489H135.715V481.364H136.888ZM140.054 487.27L143.733 481.364H145.085V489H143.912V483.094L140.253 489H138.881V481.364H140.054V487.27ZM146.045 482.457V481.364H152.249V482.457H149.743V489H148.57V482.457H146.045ZM156.615 489.159C155.88 489.159 155.245 488.997 154.711 488.672C154.181 488.344 153.772 487.886 153.483 487.3C153.198 486.71 153.056 486.024 153.056 485.241C153.056 484.459 153.198 483.77 153.483 483.173C153.772 482.573 154.173 482.106 154.686 481.771C155.203 481.433 155.807 481.264 156.496 481.264C156.894 481.264 157.287 481.33 157.674 481.463C158.062 481.596 158.415 481.811 158.733 482.109C159.051 482.404 159.305 482.795 159.494 483.283C159.683 483.77 159.777 484.37 159.777 485.082V485.58H153.891V484.565H158.584C158.584 484.134 158.498 483.75 158.326 483.412C158.157 483.074 157.915 482.807 157.6 482.612C157.288 482.416 156.92 482.318 156.496 482.318C156.029 482.318 155.624 482.434 155.283 482.666C154.945 482.895 154.685 483.193 154.502 483.561C154.32 483.929 154.229 484.323 154.229 484.744V485.42C154.229 485.997 154.328 486.486 154.527 486.887C154.73 487.285 155.01 487.588 155.368 487.797C155.725 488.002 156.141 488.105 156.615 488.105C156.924 488.105 157.202 488.062 157.451 487.976C157.703 487.886 157.92 487.754 158.102 487.578C158.284 487.399 158.425 487.177 158.525 486.912L159.658 487.23C159.539 487.615 159.338 487.953 159.056 488.244C158.775 488.533 158.427 488.758 158.012 488.92C157.598 489.08 157.132 489.159 156.615 489.159ZM165.199 489V481.364H166.372V489H165.199ZM165.795 480.091C165.567 480.091 165.37 480.013 165.204 479.857C165.041 479.701 164.96 479.514 164.96 479.295C164.96 479.077 165.041 478.889 165.204 478.734C165.37 478.578 165.567 478.5 165.795 478.5C166.024 478.5 166.22 478.578 166.382 478.734C166.548 478.889 166.631 479.077 166.631 479.295C166.631 479.514 166.548 479.701 166.382 479.857C166.22 480.013 166.024 480.091 165.795 480.091ZM171.771 481.364V482.358H167.655V481.364H171.771ZM168.888 489V480.31C168.888 479.872 168.991 479.508 169.196 479.216C169.402 478.924 169.668 478.705 169.996 478.56C170.325 478.414 170.671 478.341 171.036 478.341C171.324 478.341 171.559 478.364 171.741 478.411C171.924 478.457 172.06 478.5 172.149 478.54L171.811 479.554C171.751 479.534 171.669 479.509 171.562 479.479C171.46 479.45 171.324 479.435 171.155 479.435C170.767 479.435 170.487 479.532 170.315 479.728C170.146 479.924 170.061 480.21 170.061 480.588V489H168.888ZM173.265 489V481.364H174.399V482.517H174.478C174.618 482.139 174.869 481.833 175.234 481.597C175.599 481.362 176.01 481.244 176.467 481.244C176.553 481.244 176.661 481.246 176.79 481.249C176.919 481.253 177.017 481.258 177.083 481.264V482.457C177.044 482.447 176.953 482.433 176.81 482.413C176.671 482.389 176.523 482.378 176.368 482.378C175.996 482.378 175.665 482.456 175.373 482.612C175.085 482.764 174.856 482.976 174.687 483.248C174.521 483.516 174.439 483.823 174.439 484.168V489H173.265ZM180.571 489.179C180.087 489.179 179.648 489.088 179.254 488.906C178.859 488.72 178.546 488.453 178.314 488.105C178.082 487.754 177.966 487.33 177.966 486.832C177.966 486.395 178.052 486.04 178.224 485.768C178.397 485.493 178.627 485.278 178.915 485.122C179.204 484.966 179.522 484.85 179.87 484.774C180.221 484.695 180.574 484.632 180.929 484.585C181.393 484.526 181.769 484.481 182.058 484.451C182.349 484.418 182.561 484.363 182.694 484.287C182.83 484.211 182.898 484.078 182.898 483.889V483.849C182.898 483.359 182.763 482.978 182.495 482.706C182.23 482.434 181.827 482.298 181.287 482.298C180.727 482.298 180.288 482.421 179.969 482.666C179.651 482.911 179.428 483.173 179.298 483.452L178.185 483.054C178.384 482.59 178.649 482.229 178.98 481.97C179.315 481.708 179.679 481.526 180.074 481.423C180.472 481.317 180.863 481.264 181.247 481.264C181.492 481.264 181.774 481.294 182.092 481.354C182.414 481.41 182.724 481.528 183.022 481.707C183.324 481.886 183.574 482.156 183.773 482.517C183.972 482.878 184.071 483.362 184.071 483.969V489H182.898V487.966H182.838C182.759 488.132 182.626 488.309 182.44 488.498C182.255 488.687 182.008 488.848 181.7 488.98C181.391 489.113 181.015 489.179 180.571 489.179ZM180.75 488.125C181.214 488.125 181.605 488.034 181.923 487.852C182.245 487.669 182.487 487.434 182.649 487.146C182.815 486.857 182.898 486.554 182.898 486.236V485.162C182.848 485.222 182.739 485.276 182.57 485.326C182.404 485.372 182.212 485.414 181.993 485.45C181.777 485.483 181.567 485.513 181.362 485.54C181.159 485.563 180.995 485.583 180.869 485.599C180.564 485.639 180.279 485.704 180.014 485.793C179.752 485.879 179.54 486.01 179.378 486.186C179.219 486.358 179.139 486.594 179.139 486.892C179.139 487.3 179.29 487.608 179.592 487.817C179.897 488.022 180.283 488.125 180.75 488.125ZM186.062 489V481.364H187.196V482.557H187.295C187.454 482.149 187.711 481.833 188.066 481.607C188.42 481.379 188.846 481.264 189.343 481.264C189.847 481.264 190.266 481.379 190.601 481.607C190.939 481.833 191.203 482.149 191.392 482.557H191.471C191.667 482.162 191.96 481.849 192.351 481.617C192.742 481.382 193.211 481.264 193.758 481.264C194.441 481.264 194.999 481.478 195.434 481.906C195.868 482.33 196.085 482.991 196.085 483.889V489H194.912V483.889C194.912 483.326 194.757 482.923 194.449 482.681C194.141 482.439 193.778 482.318 193.36 482.318C192.824 482.318 192.408 482.481 192.113 482.805C191.818 483.127 191.67 483.535 191.67 484.028V489H190.477V483.77C190.477 483.336 190.336 482.986 190.054 482.721C189.773 482.452 189.41 482.318 188.966 482.318C188.661 482.318 188.376 482.399 188.11 482.562C187.849 482.724 187.636 482.95 187.474 483.238C187.315 483.523 187.235 483.853 187.235 484.227V489H186.062ZM201.281 489.159C200.546 489.159 199.911 488.997 199.377 488.672C198.847 488.344 198.438 487.886 198.149 487.3C197.864 486.71 197.722 486.024 197.722 485.241C197.722 484.459 197.864 483.77 198.149 483.173C198.438 482.573 198.839 482.106 199.352 481.771C199.869 481.433 200.473 481.264 201.162 481.264C201.56 481.264 201.953 481.33 202.34 481.463C202.728 481.596 203.081 481.811 203.399 482.109C203.718 482.404 203.971 482.795 204.16 483.283C204.349 483.77 204.443 484.37 204.443 485.082V485.58H198.557V484.565H203.25C203.25 484.134 203.164 483.75 202.992 483.412C202.823 483.074 202.581 482.807 202.266 482.612C201.954 482.416 201.586 482.318 201.162 482.318C200.695 482.318 200.29 482.434 199.949 482.666C199.611 482.895 199.351 483.193 199.169 483.561C198.986 483.929 198.895 484.323 198.895 484.744V485.42C198.895 485.997 198.994 486.486 199.193 486.887C199.396 487.285 199.676 487.588 200.034 487.797C200.392 488.002 200.807 488.105 201.281 488.105C201.59 488.105 201.868 488.062 202.117 487.976C202.369 487.886 202.586 487.754 202.768 487.578C202.95 487.399 203.091 487.177 203.191 486.912L204.324 487.23C204.205 487.615 204.004 487.953 203.722 488.244C203.441 488.533 203.093 488.758 202.678 488.92C202.264 489.08 201.798 489.159 201.281 489.159ZM215.274 483.074L214.22 483.372C214.154 483.196 214.056 483.026 213.927 482.86C213.801 482.691 213.628 482.552 213.41 482.442C213.191 482.333 212.911 482.278 212.569 482.278C212.102 482.278 211.713 482.386 211.401 482.602C211.093 482.814 210.939 483.084 210.939 483.412C210.939 483.704 211.045 483.934 211.257 484.103C211.469 484.272 211.8 484.413 212.251 484.526L213.385 484.804C214.068 484.97 214.576 485.223 214.911 485.565C215.246 485.903 215.413 486.339 215.413 486.872C215.413 487.31 215.287 487.701 215.035 488.045C214.787 488.39 214.439 488.662 213.991 488.861C213.544 489.06 213.023 489.159 212.43 489.159C211.651 489.159 211.007 488.99 210.496 488.652C209.986 488.314 209.663 487.82 209.527 487.17L210.64 486.892C210.747 487.303 210.947 487.611 211.242 487.817C211.54 488.022 211.93 488.125 212.41 488.125C212.957 488.125 213.391 488.009 213.713 487.777C214.038 487.542 214.2 487.26 214.2 486.932C214.2 486.667 214.107 486.445 213.922 486.266C213.736 486.083 213.451 485.947 213.067 485.858L211.794 485.56C211.095 485.394 210.581 485.137 210.253 484.789C209.928 484.438 209.765 483.999 209.765 483.472C209.765 483.041 209.886 482.66 210.128 482.328C210.374 481.997 210.707 481.737 211.128 481.548C211.552 481.359 212.032 481.264 212.569 481.264C213.325 481.264 213.918 481.43 214.349 481.761C214.783 482.093 215.092 482.53 215.274 483.074ZM217.029 489V481.364H218.162V482.517H218.242C218.381 482.139 218.633 481.833 218.998 481.597C219.362 481.362 219.773 481.244 220.231 481.244C220.317 481.244 220.425 481.246 220.554 481.249C220.683 481.253 220.781 481.258 220.847 481.264V482.457C220.807 482.447 220.716 482.433 220.574 482.413C220.434 482.389 220.287 482.378 220.131 482.378C219.76 482.378 219.429 482.456 219.137 482.612C218.849 482.764 218.62 482.976 218.451 483.248C218.285 483.516 218.202 483.823 218.202 484.168V489H217.029ZM224.957 489.159C224.241 489.159 223.625 488.99 223.108 488.652C222.591 488.314 222.193 487.848 221.915 487.255C221.636 486.662 221.497 485.984 221.497 485.222C221.497 484.446 221.64 483.762 221.925 483.168C222.213 482.572 222.614 482.106 223.128 481.771C223.645 481.433 224.248 481.264 224.938 481.264C225.474 481.264 225.958 481.364 226.389 481.562C226.82 481.761 227.173 482.04 227.448 482.398C227.723 482.756 227.894 483.173 227.96 483.651H226.787C226.697 483.303 226.499 482.994 226.19 482.726C225.885 482.454 225.474 482.318 224.957 482.318C224.5 482.318 224.099 482.437 223.754 482.676C223.413 482.911 223.146 483.245 222.954 483.675C222.765 484.103 222.67 484.605 222.67 485.182C222.67 485.772 222.763 486.286 222.949 486.723C223.138 487.161 223.403 487.5 223.744 487.742C224.089 487.984 224.493 488.105 224.957 488.105C225.262 488.105 225.539 488.052 225.788 487.946C226.036 487.84 226.247 487.688 226.419 487.489C226.591 487.29 226.714 487.051 226.787 486.773H227.96C227.894 487.223 227.73 487.629 227.468 487.991C227.21 488.349 226.866 488.634 226.439 488.846C226.015 489.055 225.521 489.159 224.957 489.159ZM238.423 484.645V485.739H234.207V484.645H238.423ZM234.485 481.364V489H233.312V481.364H234.485ZM239.318 481.364V489H238.145V481.364H239.318ZM243.557 489.179C243.073 489.179 242.634 489.088 242.24 488.906C241.845 488.72 241.532 488.453 241.3 488.105C241.068 487.754 240.952 487.33 240.952 486.832C240.952 486.395 241.038 486.04 241.211 485.768C241.383 485.493 241.613 485.278 241.902 485.122C242.19 484.966 242.508 484.85 242.856 484.774C243.208 484.695 243.561 484.632 243.915 484.585C244.379 484.526 244.756 484.481 245.044 484.451C245.336 484.418 245.548 484.363 245.68 484.287C245.816 484.211 245.884 484.078 245.884 483.889V483.849C245.884 483.359 245.75 482.978 245.481 482.706C245.216 482.434 244.814 482.298 244.273 482.298C243.713 482.298 243.274 482.421 242.956 482.666C242.638 482.911 242.414 483.173 242.285 483.452L241.171 483.054C241.37 482.59 241.635 482.229 241.966 481.97C242.301 481.708 242.666 481.526 243.06 481.423C243.458 481.317 243.849 481.264 244.233 481.264C244.479 481.264 244.76 481.294 245.079 481.354C245.4 481.41 245.71 481.528 246.008 481.707C246.31 481.886 246.56 482.156 246.759 482.517C246.958 482.878 247.057 483.362 247.057 483.969V489H245.884V487.966H245.824C245.745 488.132 245.612 488.309 245.427 488.498C245.241 488.687 244.994 488.848 244.686 488.98C244.378 489.113 244.001 489.179 243.557 489.179ZM243.736 488.125C244.2 488.125 244.591 488.034 244.91 487.852C245.231 487.669 245.473 487.434 245.635 487.146C245.801 486.857 245.884 486.554 245.884 486.236V485.162C245.834 485.222 245.725 485.276 245.556 485.326C245.39 485.372 245.198 485.414 244.979 485.45C244.764 485.483 244.553 485.513 244.348 485.54C244.146 485.563 243.982 485.583 243.856 485.599C243.551 485.639 243.266 485.704 243.001 485.793C242.739 485.879 242.527 486.01 242.364 486.186C242.205 486.358 242.126 486.594 242.126 486.892C242.126 487.3 242.276 487.608 242.578 487.817C242.883 488.022 243.269 488.125 243.736 488.125ZM255.938 489.159C255.222 489.159 254.605 488.99 254.088 488.652C253.571 488.314 253.174 487.848 252.895 487.255C252.617 486.662 252.478 485.984 252.478 485.222C252.478 484.446 252.62 483.762 252.905 483.168C253.194 482.572 253.595 482.106 254.108 481.771C254.625 481.433 255.229 481.264 255.918 481.264C256.455 481.264 256.939 481.364 257.37 481.562C257.801 481.761 258.154 482.04 258.429 482.398C258.704 482.756 258.874 483.173 258.941 483.651H257.767C257.678 483.303 257.479 482.994 257.171 482.726C256.866 482.454 256.455 482.318 255.938 482.318C255.48 482.318 255.079 482.437 254.735 482.676C254.393 482.911 254.127 483.245 253.934 483.675C253.745 484.103 253.651 484.605 253.651 485.182C253.651 485.772 253.744 486.286 253.929 486.723C254.118 487.161 254.383 487.5 254.725 487.742C255.069 487.984 255.474 488.105 255.938 488.105C256.243 488.105 256.52 488.052 256.768 487.946C257.017 487.84 257.227 487.688 257.4 487.489C257.572 487.29 257.694 487.051 257.767 486.773H258.941C258.874 487.223 258.71 487.629 258.449 487.991C258.19 488.349 257.847 488.634 257.419 488.846C256.995 489.055 256.501 489.159 255.938 489.159ZM263.608 489.159C262.892 489.159 262.275 488.99 261.758 488.652C261.241 488.314 260.844 487.848 260.565 487.255C260.287 486.662 260.148 485.984 260.148 485.222C260.148 484.446 260.29 483.762 260.575 483.168C260.863 482.572 261.265 482.106 261.778 481.771C262.295 481.433 262.898 481.264 263.588 481.264C264.125 481.264 264.609 481.364 265.04 481.562C265.47 481.761 265.823 482.04 266.099 482.398C266.374 482.756 266.544 483.173 266.611 483.651H265.437C265.348 483.303 265.149 482.994 264.841 482.726C264.536 482.454 264.125 482.318 263.608 482.318C263.15 482.318 262.749 482.437 262.405 482.676C262.063 482.911 261.796 483.245 261.604 483.675C261.415 484.103 261.321 484.605 261.321 485.182C261.321 485.772 261.414 486.286 261.599 486.723C261.788 487.161 262.053 487.5 262.395 487.742C262.739 487.984 263.144 488.105 263.608 488.105C263.913 488.105 264.189 488.052 264.438 487.946C264.687 487.84 264.897 487.688 265.069 487.489C265.242 487.29 265.364 487.051 265.437 486.773H266.611C266.544 487.223 266.38 487.629 266.118 487.991C265.86 488.349 265.517 488.634 265.089 488.846C264.665 489.055 264.171 489.159 263.608 489.159ZM269.19 484.128H271.377C272.272 484.128 272.956 484.355 273.43 484.809C273.904 485.263 274.141 485.838 274.141 486.534C274.141 486.991 274.035 487.407 273.823 487.782C273.611 488.153 273.299 488.45 272.888 488.672C272.478 488.891 271.974 489 271.377 489H268.175V481.364H269.349V487.906H271.377C271.841 487.906 272.222 487.784 272.521 487.538C272.819 487.293 272.968 486.978 272.968 486.594C272.968 486.189 272.819 485.86 272.521 485.604C272.222 485.349 271.841 485.222 271.377 485.222H269.19V484.128ZM275.354 489V481.364H276.528V489H275.354ZM277.849 489V487.906H278.127C278.356 487.906 278.547 487.862 278.699 487.772C278.852 487.679 278.974 487.518 279.067 487.29C279.163 487.058 279.236 486.736 279.286 486.325C279.339 485.911 279.377 485.384 279.4 484.744L279.539 481.364H284.63V489H283.457V482.457H280.653L280.534 485.182C280.507 485.808 280.451 486.36 280.365 486.837C280.282 487.311 280.154 487.709 279.982 488.031C279.813 488.352 279.587 488.594 279.306 488.756C279.024 488.919 278.671 489 278.247 489H277.849ZM286.632 489V481.364H287.806V484.685H288.581L291.326 481.364H292.837L289.755 485.043L292.877 489H291.365L288.86 485.778H287.806V489H286.632ZM294.757 491.864C294.558 491.864 294.381 491.847 294.225 491.814C294.07 491.784 293.962 491.754 293.902 491.724L294.2 490.69C294.485 490.763 294.737 490.79 294.956 490.77C295.175 490.75 295.369 490.652 295.538 490.477C295.71 490.304 295.868 490.024 296.01 489.636L296.229 489.04L293.405 481.364H294.678L296.786 487.449H296.865L298.973 481.364H300.246L297.004 490.114C296.859 490.508 296.678 490.835 296.463 491.093C296.247 491.355 295.997 491.549 295.712 491.675C295.43 491.801 295.112 491.864 294.757 491.864ZM305.431 489V481.364H308.553C309.375 481.364 310.028 481.549 310.512 481.92C310.996 482.292 311.238 482.782 311.238 483.392C311.238 483.856 311.101 484.216 310.825 484.471C310.55 484.723 310.197 484.893 309.767 484.983C310.048 485.023 310.322 485.122 310.587 485.281C310.855 485.44 311.077 485.659 311.253 485.938C311.429 486.213 311.517 486.551 311.517 486.952C311.517 487.343 311.417 487.692 311.218 488.001C311.019 488.309 310.734 488.553 310.363 488.732C309.992 488.911 309.548 489 309.031 489H305.431ZM306.545 487.926H309.031C309.435 487.926 309.752 487.83 309.98 487.638C310.209 487.446 310.323 487.184 310.323 486.852C310.323 486.458 310.209 486.148 309.98 485.923C309.752 485.694 309.435 485.58 309.031 485.58H306.545V487.926ZM306.545 484.565H308.553C308.868 484.565 309.138 484.522 309.364 484.436C309.589 484.347 309.762 484.221 309.881 484.058C310.003 483.893 310.065 483.697 310.065 483.472C310.065 483.15 309.931 482.898 309.662 482.716C309.394 482.53 309.024 482.438 308.553 482.438H306.545V484.565ZM315.389 489.179C314.905 489.179 314.466 489.088 314.072 488.906C313.677 488.72 313.364 488.453 313.132 488.105C312.9 487.754 312.784 487.33 312.784 486.832C312.784 486.395 312.87 486.04 313.043 485.768C313.215 485.493 313.445 485.278 313.734 485.122C314.022 484.966 314.34 484.85 314.688 484.774C315.04 484.695 315.393 484.632 315.747 484.585C316.211 484.526 316.588 484.481 316.876 484.451C317.168 484.418 317.38 484.363 317.512 484.287C317.648 484.211 317.716 484.078 317.716 483.889V483.849C317.716 483.359 317.582 482.978 317.313 482.706C317.048 482.434 316.646 482.298 316.105 482.298C315.545 482.298 315.106 482.421 314.788 482.666C314.47 482.911 314.246 483.173 314.117 483.452L313.003 483.054C313.202 482.59 313.467 482.229 313.798 481.97C314.133 481.708 314.498 481.526 314.892 481.423C315.29 481.317 315.681 481.264 316.066 481.264C316.311 481.264 316.593 481.294 316.911 481.354C317.232 481.41 317.542 481.528 317.84 481.707C318.142 481.886 318.392 482.156 318.591 482.517C318.79 482.878 318.889 483.362 318.889 483.969V489H317.716V487.966H317.656C317.577 488.132 317.444 488.309 317.259 488.498C317.073 488.687 316.826 488.848 316.518 488.98C316.21 489.113 315.834 489.179 315.389 489.179ZM315.568 488.125C316.032 488.125 316.423 488.034 316.742 487.852C317.063 487.669 317.305 487.434 317.468 487.146C317.633 486.857 317.716 486.554 317.716 486.236V485.162C317.666 485.222 317.557 485.276 317.388 485.326C317.222 485.372 317.03 485.414 316.811 485.45C316.596 485.483 316.385 485.513 316.18 485.54C315.978 485.563 315.814 485.583 315.688 485.599C315.383 485.639 315.098 485.704 314.833 485.793C314.571 485.879 314.359 486.01 314.196 486.186C314.037 486.358 313.958 486.594 313.958 486.892C313.958 487.3 314.108 487.608 314.41 487.817C314.715 488.022 315.101 488.125 315.568 488.125ZM320.881 481.364H322.054V487.906H324.937V481.364H326.111V487.906H328.994V481.364H330.167V489H320.881V481.364ZM335.362 489.159C334.626 489.159 333.991 488.997 333.457 488.672C332.927 488.344 332.518 487.886 332.229 487.3C331.944 486.71 331.802 486.024 331.802 485.241C331.802 484.459 331.944 483.77 332.229 483.173C332.518 482.573 332.919 482.106 333.433 481.771C333.95 481.433 334.553 481.264 335.242 481.264C335.64 481.264 336.033 481.33 336.42 481.463C336.808 481.596 337.161 481.811 337.479 482.109C337.798 482.404 338.051 482.795 338.24 483.283C338.429 483.77 338.523 484.37 338.523 485.082V485.58H332.637V484.565H337.33C337.33 484.134 337.244 483.75 337.072 483.412C336.903 483.074 336.661 482.807 336.346 482.612C336.034 482.416 335.666 482.318 335.242 482.318C334.775 482.318 334.371 482.434 334.029 482.666C333.691 482.895 333.431 483.193 333.249 483.561C333.066 483.929 332.975 484.323 332.975 484.744V485.42C332.975 485.997 333.075 486.486 333.273 486.887C333.476 487.285 333.756 487.588 334.114 487.797C334.472 488.002 334.888 488.105 335.362 488.105C335.67 488.105 335.948 488.062 336.197 487.976C336.449 487.886 336.666 487.754 336.848 487.578C337.03 487.399 337.171 487.177 337.271 486.912L338.404 487.23C338.285 487.615 338.084 487.953 337.803 488.244C337.521 488.533 337.173 488.758 336.759 488.92C336.344 489.08 335.879 489.159 335.362 489.159ZM344.871 481.364V482.457H341.331V489H340.158V481.364H344.871ZM349.139 489.159C348.45 489.159 347.845 488.995 347.324 488.667C346.807 488.339 346.403 487.88 346.111 487.29C345.823 486.7 345.679 486.01 345.679 485.222C345.679 484.426 345.823 483.732 346.111 483.138C346.403 482.545 346.807 482.085 347.324 481.756C347.845 481.428 348.45 481.264 349.139 481.264C349.828 481.264 350.432 481.428 350.949 481.756C351.469 482.085 351.873 482.545 352.162 483.138C352.453 483.732 352.599 484.426 352.599 485.222C352.599 486.01 352.453 486.7 352.162 487.29C351.873 487.88 351.469 488.339 350.949 488.667C350.432 488.995 349.828 489.159 349.139 489.159ZM349.139 488.105C349.663 488.105 350.094 487.971 350.432 487.702C350.77 487.434 351.02 487.081 351.182 486.643C351.345 486.206 351.426 485.732 351.426 485.222C351.426 484.711 351.345 484.236 351.182 483.795C351.02 483.354 350.77 482.998 350.432 482.726C350.094 482.454 349.663 482.318 349.139 482.318C348.615 482.318 348.184 482.454 347.846 482.726C347.508 482.998 347.258 483.354 347.096 483.795C346.933 484.236 346.852 484.711 346.852 485.222C346.852 485.732 346.933 486.206 347.096 486.643C347.258 487.081 347.508 487.434 347.846 487.702C348.184 487.971 348.615 488.105 349.139 488.105ZM181.385 499.912V498.818H189.021V499.912H185.82V509H184.587V499.912H181.385ZM190.615 509V501.364H191.788V509H190.615ZM191.211 500.091C190.983 500.091 190.786 500.013 190.62 499.857C190.457 499.701 190.376 499.514 190.376 499.295C190.376 499.077 190.457 498.889 190.62 498.734C190.786 498.578 190.983 498.5 191.211 498.5C191.44 498.5 191.636 498.578 191.798 498.734C191.964 498.889 192.047 499.077 192.047 499.295C192.047 499.514 191.964 499.701 191.798 499.857C191.636 500.013 191.44 500.091 191.211 500.091ZM194.881 506.216L194.861 504.764H195.099L198.44 501.364H199.892L196.332 504.963H196.233L194.881 506.216ZM193.787 509V498.818H194.96V509H193.787ZM198.639 509L195.656 505.222L196.491 504.406L200.131 509H198.639ZM200.061 499.912V498.818H207.697V499.912H204.496V509H203.263V499.912H200.061ZM211.286 509.159C210.596 509.159 209.991 508.995 209.471 508.667C208.954 508.339 208.549 507.88 208.258 507.29C207.969 506.7 207.825 506.01 207.825 505.222C207.825 504.426 207.969 503.732 208.258 503.138C208.549 502.545 208.954 502.085 209.471 501.756C209.991 501.428 210.596 501.264 211.286 501.264C211.975 501.264 212.578 501.428 213.095 501.756C213.616 502.085 214.02 502.545 214.308 503.138C214.6 503.732 214.746 504.426 214.746 505.222C214.746 506.01 214.6 506.7 214.308 507.29C214.02 507.88 213.616 508.339 213.095 508.667C212.578 508.995 211.975 509.159 211.286 509.159ZM211.286 508.105C211.809 508.105 212.24 507.971 212.578 507.702C212.916 507.434 213.166 507.081 213.329 506.643C213.491 506.206 213.572 505.732 213.572 505.222C213.572 504.711 213.491 504.236 213.329 503.795C213.166 503.354 212.916 502.998 212.578 502.726C212.24 502.454 211.809 502.318 211.286 502.318C210.762 502.318 210.331 502.454 209.993 502.726C209.655 502.998 209.405 503.354 209.242 503.795C209.08 504.236 208.999 504.711 208.999 505.222C208.999 505.732 209.08 506.206 209.242 506.643C209.405 507.081 209.655 507.434 209.993 507.702C210.331 507.971 210.762 508.105 211.286 508.105ZM217.48 506.216L217.46 504.764H217.699L221.04 501.364H222.491L218.932 504.963H218.832L217.48 506.216ZM216.386 509V498.818H217.56V509H216.386ZM221.239 509L218.256 505.222L219.091 504.406L222.73 509H221.239ZM227.638 509V501.364H230.76C231.582 501.364 232.235 501.549 232.719 501.92C233.203 502.292 233.445 502.782 233.445 503.392C233.445 503.856 233.308 504.216 233.032 504.471C232.757 504.723 232.404 504.893 231.974 504.983C232.255 505.023 232.529 505.122 232.794 505.281C233.062 505.44 233.284 505.659 233.46 505.938C233.636 506.213 233.724 506.551 233.724 506.952C233.724 507.343 233.624 507.692 233.425 508.001C233.226 508.309 232.941 508.553 232.57 508.732C232.199 508.911 231.755 509 231.238 509H227.638ZM228.752 507.926H231.238C231.642 507.926 231.959 507.83 232.187 507.638C232.416 507.446 232.53 507.184 232.53 506.852C232.53 506.458 232.416 506.148 232.187 505.923C231.959 505.694 231.642 505.58 231.238 505.58H228.752V507.926ZM228.752 504.565H230.76C231.075 504.565 231.345 504.522 231.571 504.436C231.796 504.347 231.969 504.221 232.088 504.058C232.211 503.893 232.272 503.697 232.272 503.472C232.272 503.15 232.138 502.898 231.869 502.716C231.601 502.53 231.231 502.438 230.76 502.438H228.752V504.565ZM236.523 507.27L240.202 501.364H241.554V509H240.381V503.094L236.721 509H235.349V501.364H236.523V507.27ZM242.737 511.188V507.906H243.373C243.529 507.744 243.663 507.568 243.776 507.379C243.889 507.19 243.987 506.967 244.069 506.708C244.156 506.446 244.229 506.128 244.288 505.754C244.348 505.376 244.401 504.92 244.447 504.386L244.706 501.364H249.558V507.906H250.731V511.188H249.558V509H243.91V511.188H242.737ZM244.706 507.906H248.385V502.457H245.8L245.601 504.386C245.518 505.185 245.415 505.883 245.292 506.479C245.17 507.076 244.974 507.552 244.706 507.906ZM255.34 509.159C254.604 509.159 253.97 508.997 253.436 508.672C252.906 508.344 252.496 507.886 252.208 507.3C251.923 506.71 251.78 506.024 251.78 505.241C251.78 504.459 251.923 503.77 252.208 503.173C252.496 502.573 252.897 502.106 253.411 501.771C253.928 501.433 254.531 501.264 255.221 501.264C255.618 501.264 256.011 501.33 256.399 501.463C256.787 501.596 257.14 501.811 257.458 502.109C257.776 502.404 258.03 502.795 258.219 503.283C258.407 503.77 258.502 504.37 258.502 505.082V505.58H252.616V504.565H257.309C257.309 504.134 257.223 503.75 257.05 503.412C256.881 503.074 256.639 502.807 256.324 502.612C256.013 502.416 255.645 502.318 255.221 502.318C254.753 502.318 254.349 502.434 254.008 502.666C253.67 502.895 253.409 503.193 253.227 503.561C253.045 503.929 252.954 504.323 252.954 504.744V505.42C252.954 505.997 253.053 506.486 253.252 506.887C253.454 507.285 253.734 507.588 254.092 507.797C254.45 508.002 254.866 508.105 255.34 508.105C255.648 508.105 255.927 508.062 256.175 507.976C256.427 507.886 256.644 507.754 256.827 507.578C257.009 507.399 257.15 507.177 257.249 506.912L258.383 507.23C258.263 507.615 258.063 507.953 257.781 508.244C257.499 508.533 257.151 508.758 256.737 508.92C256.323 509.08 255.857 509.159 255.34 509.159ZM263.239 509.159C262.549 509.159 261.944 508.995 261.424 508.667C260.907 508.339 260.503 507.88 260.211 507.29C259.923 506.7 259.778 506.01 259.778 505.222C259.778 504.426 259.923 503.732 260.211 503.138C260.503 502.545 260.907 502.085 261.424 501.756C261.944 501.428 262.549 501.264 263.239 501.264C263.928 501.264 264.531 501.428 265.048 501.756C265.569 502.085 265.973 502.545 266.261 503.138C266.553 503.732 266.699 504.426 266.699 505.222C266.699 506.01 266.553 506.7 266.261 507.29C265.973 507.88 265.569 508.339 265.048 508.667C264.531 508.995 263.928 509.159 263.239 509.159ZM263.239 508.105C263.762 508.105 264.193 507.971 264.531 507.702C264.869 507.434 265.12 507.081 265.282 506.643C265.444 506.206 265.526 505.732 265.526 505.222C265.526 504.711 265.444 504.236 265.282 503.795C265.12 503.354 264.869 502.998 264.531 502.726C264.193 502.454 263.762 502.318 263.239 502.318C262.715 502.318 262.284 502.454 261.946 502.726C261.608 502.998 261.358 503.354 261.195 503.795C261.033 504.236 260.952 504.711 260.952 505.222C260.952 505.732 261.033 506.206 261.195 506.643C261.358 507.081 261.608 507.434 261.946 507.702C262.284 507.971 262.715 508.105 263.239 508.105Z" fill="white" fill-opacity="0.8"/>
<path d="M56.2812 540C56.2812 534.477 60.7584 530 66.2812 530H381.719C387.242 530 391.719 534.477 391.719 540V552C391.719 557.523 387.242 562 381.719 562H66.2812C60.7584 562 56.2812 557.523 56.2812 552V540Z" fill="black" fill-opacity="0.2"/>
<path d="M96.223 547.062V551H95.2173V542.273H96.223V545.477H96.3082C96.4616 545.139 96.6918 544.871 96.9986 544.672C97.3082 544.47 97.7202 544.369 98.2344 544.369C98.6804 544.369 99.071 544.459 99.4062 544.638C99.7415 544.814 100.001 545.085 100.186 545.452C100.374 545.815 100.467 546.278 100.467 546.841V551H99.4616V546.909C99.4616 546.389 99.3267 545.987 99.0568 545.703C98.7898 545.416 98.419 545.273 97.9446 545.273C97.6151 545.273 97.3196 545.342 97.0582 545.482C96.7997 545.621 96.5952 545.824 96.4446 546.091C96.2969 546.358 96.223 546.682 96.223 547.062ZM105.154 544.455V545.307H101.762V544.455H105.154ZM102.75 542.886H103.756V549.125C103.756 549.409 103.797 549.622 103.88 549.764C103.965 549.903 104.073 549.997 104.203 550.045C104.337 550.091 104.478 550.114 104.625 550.114C104.736 550.114 104.827 550.108 104.898 550.097C104.969 550.082 105.026 550.071 105.069 550.062L105.273 550.966C105.205 550.991 105.11 551.017 104.988 551.043C104.865 551.071 104.711 551.085 104.523 551.085C104.239 551.085 103.961 551.024 103.688 550.902C103.418 550.78 103.194 550.594 103.015 550.344C102.838 550.094 102.75 549.778 102.75 549.398V542.886ZM109.513 544.455V545.307H106.121V544.455H109.513ZM107.11 542.886H108.115V549.125C108.115 549.409 108.157 549.622 108.239 549.764C108.324 549.903 108.432 549.997 108.563 550.045C108.696 550.091 108.837 550.114 108.985 550.114C109.096 550.114 109.186 550.108 109.257 550.097C109.328 550.082 109.385 550.071 109.428 550.062L109.632 550.966C109.564 550.991 109.469 551.017 109.347 551.043C109.225 551.071 109.07 551.085 108.882 551.085C108.598 551.085 108.32 551.024 108.047 550.902C107.777 550.78 107.553 550.594 107.374 550.344C107.198 550.094 107.11 549.778 107.11 549.398V542.886ZM111.026 553.455V544.455H111.998V545.494H112.117C112.191 545.381 112.293 545.236 112.424 545.06C112.557 544.881 112.748 544.722 112.995 544.582C113.245 544.44 113.583 544.369 114.009 544.369C114.56 544.369 115.046 544.507 115.466 544.783C115.887 545.058 116.215 545.449 116.451 545.955C116.686 546.46 116.804 547.057 116.804 547.744C116.804 548.438 116.686 549.038 116.451 549.547C116.215 550.053 115.888 550.445 115.471 550.723C115.053 550.999 114.571 551.136 114.026 551.136C113.605 551.136 113.269 551.067 113.016 550.928C112.763 550.786 112.569 550.625 112.432 550.446C112.296 550.264 112.191 550.114 112.117 549.994H112.032V553.455H111.026ZM112.015 547.727C112.015 548.222 112.087 548.658 112.232 549.036C112.377 549.411 112.588 549.705 112.867 549.918C113.145 550.128 113.486 550.233 113.89 550.233C114.31 550.233 114.661 550.122 114.942 549.901C115.226 549.676 115.439 549.375 115.581 548.997C115.726 548.616 115.799 548.193 115.799 547.727C115.799 547.267 115.728 546.852 115.586 546.483C115.446 546.111 115.235 545.817 114.951 545.601C114.669 545.382 114.316 545.273 113.89 545.273C113.48 545.273 113.137 545.376 112.858 545.584C112.58 545.788 112.37 546.075 112.228 546.445C112.086 546.811 112.015 547.239 112.015 547.727ZM122.975 545.92L122.071 546.176C122.015 546.026 121.931 545.879 121.82 545.737C121.712 545.592 121.564 545.473 121.377 545.379C121.189 545.286 120.949 545.239 120.657 545.239C120.256 545.239 119.922 545.331 119.655 545.516C119.391 545.697 119.259 545.929 119.259 546.21C119.259 546.46 119.35 546.658 119.532 546.803C119.713 546.947 119.998 547.068 120.384 547.165L121.355 547.403C121.941 547.545 122.377 547.763 122.664 548.055C122.951 548.345 123.094 548.719 123.094 549.176C123.094 549.551 122.986 549.886 122.77 550.182C122.557 550.477 122.259 550.71 121.875 550.881C121.492 551.051 121.046 551.136 120.537 551.136C119.87 551.136 119.317 550.991 118.88 550.702C118.442 550.412 118.165 549.989 118.049 549.432L119.003 549.193C119.094 549.545 119.266 549.81 119.519 549.986C119.775 550.162 120.108 550.25 120.52 550.25C120.989 550.25 121.361 550.151 121.637 549.952C121.915 549.75 122.054 549.509 122.054 549.227C122.054 549 121.975 548.81 121.816 548.656C121.657 548.5 121.412 548.384 121.083 548.307L119.992 548.051C119.392 547.909 118.952 547.689 118.671 547.391C118.392 547.089 118.253 546.713 118.253 546.261C118.253 545.892 118.357 545.565 118.564 545.281C118.775 544.997 119.06 544.774 119.421 544.612C119.784 544.45 120.196 544.369 120.657 544.369C121.304 544.369 121.813 544.511 122.182 544.795C122.554 545.08 122.819 545.455 122.975 545.92ZM125.341 551.068C125.131 551.068 124.95 550.993 124.8 550.842C124.649 550.692 124.574 550.511 124.574 550.301C124.574 550.091 124.649 549.911 124.8 549.76C124.95 549.609 125.131 549.534 125.341 549.534C125.551 549.534 125.732 549.609 125.882 549.76C126.033 549.911 126.108 550.091 126.108 550.301C126.108 550.44 126.072 550.568 126.001 550.685C125.933 550.801 125.841 550.895 125.724 550.966C125.611 551.034 125.483 551.068 125.341 551.068ZM125.341 546.21C125.131 546.21 124.95 546.135 124.8 545.984C124.649 545.834 124.574 545.653 124.574 545.443C124.574 545.233 124.649 545.053 124.8 544.902C124.95 544.751 125.131 544.676 125.341 544.676C125.551 544.676 125.732 544.751 125.882 544.902C126.033 545.053 126.108 545.233 126.108 545.443C126.108 545.582 126.072 545.71 126.001 545.827C125.933 545.943 125.841 546.037 125.724 546.108C125.611 546.176 125.483 546.21 125.341 546.21ZM130.998 541.864L128.185 552.312H127.265L130.077 541.864H130.998ZM135.275 541.864L132.463 552.312H131.542L134.355 541.864H135.275ZM137.95 551L135.956 544.455H137.013L138.428 549.466H138.496L139.893 544.455H140.967L142.348 549.449H142.416L143.831 544.455H144.888L142.893 551H141.905L140.473 545.972H140.371L138.939 551H137.95ZM147.7 551L145.706 544.455H146.763L148.178 549.466H148.246L149.643 544.455H150.717L152.098 549.449H152.166L153.581 544.455H154.638L152.643 551H151.655L150.223 545.972H150.121L148.689 551H147.7ZM157.45 551L155.456 544.455H156.513L157.928 549.466H157.996L159.393 544.455H160.467L161.848 549.449H161.916L163.331 544.455H164.388L162.393 551H161.405L159.973 545.972H159.871L158.439 551H157.45ZM165.56 551.068C165.349 551.068 165.169 550.993 165.018 550.842C164.868 550.692 164.793 550.511 164.793 550.301C164.793 550.091 164.868 549.911 165.018 549.76C165.169 549.609 165.349 549.534 165.56 549.534C165.77 549.534 165.95 549.609 166.101 549.76C166.251 549.911 166.327 550.091 166.327 550.301C166.327 550.44 166.291 550.568 166.22 550.685C166.152 550.801 166.06 550.895 165.943 550.966C165.83 551.034 165.702 551.068 165.56 551.068ZM170.978 544.455V545.307H167.586V544.455H170.978ZM168.575 542.886H169.58V549.125C169.58 549.409 169.621 549.622 169.704 549.764C169.789 549.903 169.897 549.997 170.028 550.045C170.161 550.091 170.302 550.114 170.45 550.114C170.56 550.114 170.651 550.108 170.722 550.097C170.793 550.082 170.85 550.071 170.893 550.062L171.097 550.966C171.029 550.991 170.934 551.017 170.812 551.043C170.69 551.071 170.535 551.085 170.347 551.085C170.063 551.085 169.785 551.024 169.512 550.902C169.242 550.78 169.018 550.594 168.839 550.344C168.663 550.094 168.575 549.778 168.575 549.398V542.886ZM172.491 551V544.455H173.496V551H172.491ZM173.002 543.364C172.806 543.364 172.637 543.297 172.495 543.163C172.356 543.03 172.286 542.869 172.286 542.682C172.286 542.494 172.356 542.334 172.495 542.2C172.637 542.067 172.806 542 173.002 542C173.198 542 173.366 542.067 173.505 542.2C173.647 542.334 173.718 542.494 173.718 542.682C173.718 542.869 173.647 543.03 173.505 543.163C173.366 543.297 173.198 543.364 173.002 543.364ZM176.276 548.614L176.259 547.369H176.463L179.327 544.455H180.571L177.52 547.54H177.435L176.276 548.614ZM175.338 551V542.273H176.344V551H175.338ZM179.498 551L176.941 547.761L177.657 547.062L180.776 551H179.498ZM184.712 544.455V545.307H181.32V544.455H184.712ZM182.309 542.886H183.315V549.125C183.315 549.409 183.356 549.622 183.438 549.764C183.523 549.903 183.631 549.997 183.762 550.045C183.896 550.091 184.036 550.114 184.184 550.114C184.295 550.114 184.386 550.108 184.457 550.097C184.528 550.082 184.585 550.071 184.627 550.062L184.832 550.966C184.763 550.991 184.668 551.017 184.546 551.043C184.424 551.071 184.269 551.085 184.082 551.085C183.798 551.085 183.519 551.024 183.246 550.902C182.977 550.78 182.752 550.594 182.573 550.344C182.397 550.094 182.309 549.778 182.309 549.398V542.886ZM188.814 551.136C188.223 551.136 187.705 550.996 187.259 550.714C186.815 550.433 186.469 550.04 186.219 549.534C185.972 549.028 185.848 548.437 185.848 547.761C185.848 547.08 185.972 546.484 186.219 545.976C186.469 545.467 186.815 545.072 187.259 544.791C187.705 544.51 188.223 544.369 188.814 544.369C189.405 544.369 189.922 544.51 190.365 544.791C190.811 545.072 191.158 545.467 191.405 545.976C191.655 546.484 191.78 547.08 191.78 547.761C191.78 548.437 191.655 549.028 191.405 549.534C191.158 550.04 190.811 550.433 190.365 550.714C189.922 550.996 189.405 551.136 188.814 551.136ZM188.814 550.233C189.263 550.233 189.632 550.118 189.922 549.888C190.212 549.658 190.426 549.355 190.565 548.98C190.705 548.605 190.774 548.199 190.774 547.761C190.774 547.324 190.705 546.916 190.565 546.538C190.426 546.161 190.212 545.855 189.922 545.622C189.632 545.389 189.263 545.273 188.814 545.273C188.365 545.273 187.996 545.389 187.706 545.622C187.416 545.855 187.202 546.161 187.062 546.538C186.923 546.916 186.854 547.324 186.854 547.761C186.854 548.199 186.923 548.605 187.062 548.98C187.202 549.355 187.416 549.658 187.706 549.888C187.996 550.118 188.365 550.233 188.814 550.233ZM194.252 548.614L194.235 547.369H194.44L197.304 544.455H198.548L195.497 547.54H195.412L194.252 548.614ZM193.315 551V542.273H194.321V551H193.315ZM197.474 551L194.917 547.761L195.633 547.062L198.752 551H197.474ZM200.575 551.068C200.365 551.068 200.185 550.993 200.034 550.842C199.884 550.692 199.808 550.511 199.808 550.301C199.808 550.091 199.884 549.911 200.034 549.76C200.185 549.609 200.365 549.534 200.575 549.534C200.786 549.534 200.966 549.609 201.116 549.76C201.267 549.911 201.342 550.091 201.342 550.301C201.342 550.44 201.307 550.568 201.236 550.685C201.168 550.801 201.075 550.895 200.959 550.966C200.845 551.034 200.717 551.068 200.575 551.068ZM205.806 551.136C205.192 551.136 204.664 550.991 204.221 550.702C203.778 550.412 203.437 550.013 203.198 549.504C202.96 548.996 202.84 548.415 202.84 547.761C202.84 547.097 202.962 546.51 203.207 546.001C203.454 545.49 203.798 545.091 204.238 544.804C204.681 544.514 205.198 544.369 205.789 544.369C206.249 544.369 206.664 544.455 207.033 544.625C207.403 544.795 207.705 545.034 207.941 545.341C208.177 545.648 208.323 546.006 208.38 546.415H207.374C207.298 546.116 207.127 545.852 206.863 545.622C206.602 545.389 206.249 545.273 205.806 545.273C205.414 545.273 205.07 545.375 204.775 545.58C204.482 545.781 204.254 546.067 204.089 546.436C203.927 546.803 203.846 547.233 203.846 547.727C203.846 548.233 203.925 548.673 204.085 549.048C204.246 549.423 204.474 549.714 204.766 549.922C205.062 550.129 205.408 550.233 205.806 550.233C206.067 550.233 206.305 550.188 206.518 550.097C206.731 550.006 206.911 549.875 207.059 549.705C207.207 549.534 207.312 549.33 207.374 549.091H208.38C208.323 549.477 208.183 549.825 207.958 550.135C207.737 550.442 207.442 550.686 207.076 550.868C206.712 551.047 206.289 551.136 205.806 551.136ZM212.509 551.136C211.918 551.136 211.4 550.996 210.954 550.714C210.511 550.433 210.164 550.04 209.914 549.534C209.667 549.028 209.543 548.437 209.543 547.761C209.543 547.08 209.667 546.484 209.914 545.976C210.164 545.467 210.511 545.072 210.954 544.791C211.4 544.51 211.918 544.369 212.509 544.369C213.1 544.369 213.617 544.51 214.06 544.791C214.506 545.072 214.853 545.467 215.1 545.976C215.35 546.484 215.475 547.08 215.475 547.761C215.475 548.437 215.35 549.028 215.1 549.534C214.853 550.04 214.506 550.433 214.06 550.714C213.617 550.996 213.1 551.136 212.509 551.136ZM212.509 550.233C212.958 550.233 213.327 550.118 213.617 549.888C213.907 549.658 214.121 549.355 214.261 548.98C214.4 548.605 214.469 548.199 214.469 547.761C214.469 547.324 214.4 546.916 214.261 546.538C214.121 546.161 213.907 545.855 213.617 545.622C213.327 545.389 212.958 545.273 212.509 545.273C212.06 545.273 211.691 545.389 211.401 545.622C211.112 545.855 210.897 546.161 210.758 546.538C210.619 546.916 210.549 547.324 210.549 547.761C210.549 548.199 210.619 548.605 210.758 548.98C210.897 549.355 211.112 549.658 211.401 549.888C211.691 550.118 212.06 550.233 212.509 550.233ZM217.01 551V544.455H217.982V545.477H218.067C218.203 545.128 218.424 544.857 218.728 544.663C219.032 544.467 219.397 544.369 219.823 544.369C220.255 544.369 220.614 544.467 220.901 544.663C221.191 544.857 221.417 545.128 221.578 545.477H221.647C221.814 545.139 222.066 544.871 222.401 544.672C222.736 544.47 223.138 544.369 223.607 544.369C224.192 544.369 224.671 544.553 225.043 544.919C225.415 545.283 225.601 545.849 225.601 546.619V551H224.596V546.619C224.596 546.136 224.463 545.791 224.199 545.584C223.935 545.376 223.624 545.273 223.266 545.273C222.806 545.273 222.449 545.412 222.196 545.69C221.944 545.966 221.817 546.315 221.817 546.739V551H220.794V546.517C220.794 546.145 220.674 545.845 220.432 545.618C220.191 545.388 219.88 545.273 219.499 545.273C219.238 545.273 218.993 545.342 218.766 545.482C218.542 545.621 218.36 545.814 218.221 546.061C218.084 546.305 218.016 546.588 218.016 546.909V551H217.01ZM230.525 541.864L227.713 552.312H226.792L229.605 541.864H230.525ZM234.462 551.136C233.831 551.136 233.287 550.997 232.83 550.719C232.375 550.438 232.024 550.045 231.777 549.543C231.533 549.037 231.411 548.449 231.411 547.778C231.411 547.108 231.533 546.517 231.777 546.006C232.024 545.491 232.368 545.091 232.808 544.804C233.251 544.514 233.768 544.369 234.359 544.369C234.7 544.369 235.037 544.426 235.369 544.54C235.702 544.653 236.004 544.838 236.277 545.094C236.55 545.347 236.767 545.682 236.929 546.099C237.091 546.517 237.172 547.031 237.172 547.642V548.068H232.126V547.199H236.149C236.149 546.83 236.075 546.5 235.928 546.21C235.783 545.92 235.575 545.692 235.305 545.524C235.038 545.357 234.723 545.273 234.359 545.273C233.959 545.273 233.612 545.372 233.32 545.571C233.03 545.767 232.807 546.023 232.651 546.338C232.494 546.653 232.416 546.991 232.416 547.352V547.932C232.416 548.426 232.501 548.845 232.672 549.189C232.845 549.53 233.085 549.79 233.392 549.969C233.699 550.145 234.055 550.233 234.462 550.233C234.726 550.233 234.964 550.196 235.178 550.122C235.393 550.045 235.58 549.932 235.736 549.781C235.892 549.628 236.013 549.437 236.098 549.21L237.07 549.483C236.967 549.812 236.795 550.102 236.554 550.352C236.313 550.599 236.014 550.793 235.659 550.932C235.304 551.068 234.905 551.136 234.462 551.136ZM238.702 551V544.455H239.673V545.477H239.759C239.895 545.128 240.115 544.857 240.419 544.663C240.723 544.467 241.088 544.369 241.514 544.369C241.946 544.369 242.305 544.467 242.592 544.663C242.882 544.857 243.108 545.128 243.27 545.477H243.338C243.506 545.139 243.757 544.871 244.092 544.672C244.428 544.47 244.83 544.369 245.298 544.369C245.884 544.369 246.362 544.553 246.734 544.919C247.107 545.283 247.293 545.849 247.293 546.619V551H246.287V546.619C246.287 546.136 246.155 545.791 245.891 545.584C245.626 545.376 245.315 545.273 244.957 545.273C244.497 545.273 244.141 545.412 243.888 545.69C243.635 545.966 243.509 546.315 243.509 546.739V551H242.486V546.517C242.486 546.145 242.365 545.845 242.124 545.618C241.882 545.388 241.571 545.273 241.19 545.273C240.929 545.273 240.685 545.342 240.457 545.482C240.233 545.621 240.051 545.814 239.912 546.061C239.776 546.305 239.707 546.588 239.707 546.909V551H238.702ZM249.268 551V542.273H250.273V545.494H250.359C250.433 545.381 250.535 545.236 250.665 545.06C250.799 544.881 250.989 544.722 251.237 544.582C251.487 544.44 251.825 544.369 252.251 544.369C252.802 544.369 253.288 544.507 253.708 544.783C254.129 545.058 254.457 545.449 254.692 545.955C254.928 546.46 255.046 547.057 255.046 547.744C255.046 548.438 254.928 549.038 254.692 549.547C254.457 550.053 254.13 550.445 253.712 550.723C253.295 550.999 252.813 551.136 252.268 551.136C251.847 551.136 251.511 551.067 251.258 550.928C251.005 550.786 250.81 550.625 250.674 550.446C250.538 550.264 250.433 550.114 250.359 549.994H250.239V551H249.268ZM250.256 547.727C250.256 548.222 250.329 548.658 250.474 549.036C250.619 549.411 250.83 549.705 251.109 549.918C251.387 550.128 251.728 550.233 252.131 550.233C252.552 550.233 252.903 550.122 253.184 549.901C253.468 549.676 253.681 549.375 253.823 548.997C253.968 548.616 254.04 548.193 254.04 547.727C254.04 547.267 253.969 546.852 253.827 546.483C253.688 546.111 253.477 545.817 253.192 545.601C252.911 545.382 252.558 545.273 252.131 545.273C251.722 545.273 251.379 545.376 251.1 545.584C250.822 545.788 250.612 546.075 250.469 546.445C250.327 546.811 250.256 547.239 250.256 547.727ZM259.329 551.136C258.698 551.136 258.154 550.997 257.697 550.719C257.242 550.438 256.891 550.045 256.644 549.543C256.4 549.037 256.278 548.449 256.278 547.778C256.278 547.108 256.4 546.517 256.644 546.006C256.891 545.491 257.235 545.091 257.675 544.804C258.119 544.514 258.636 544.369 259.227 544.369C259.567 544.369 259.904 544.426 260.237 544.54C260.569 544.653 260.871 544.838 261.144 545.094C261.417 545.347 261.634 545.682 261.796 546.099C261.958 546.517 262.039 547.031 262.039 547.642V548.068H256.994V547.199H261.016C261.016 546.83 260.942 546.5 260.795 546.21C260.65 545.92 260.442 545.692 260.173 545.524C259.906 545.357 259.59 545.273 259.227 545.273C258.826 545.273 258.479 545.372 258.187 545.571C257.897 545.767 257.674 546.023 257.518 546.338C257.362 546.653 257.283 546.991 257.283 547.352V547.932C257.283 548.426 257.369 548.845 257.539 549.189C257.712 549.53 257.952 549.79 258.259 549.969C258.566 550.145 258.923 550.233 259.329 550.233C259.593 550.233 259.832 550.196 260.045 550.122C260.261 550.045 260.447 549.932 260.603 549.781C260.759 549.628 260.88 549.437 260.965 549.21L261.937 549.483C261.835 549.812 261.663 550.102 261.421 550.352C261.18 550.599 260.881 550.793 260.526 550.932C260.171 551.068 259.772 551.136 259.329 551.136ZM266.04 551.136C265.495 551.136 265.013 550.999 264.596 550.723C264.178 550.445 263.852 550.053 263.616 549.547C263.38 549.038 263.262 548.438 263.262 547.744C263.262 547.057 263.38 546.46 263.616 545.955C263.852 545.449 264.18 545.058 264.6 544.783C265.021 544.507 265.506 544.369 266.058 544.369C266.484 544.369 266.82 544.44 267.067 544.582C267.317 544.722 267.508 544.881 267.638 545.06C267.772 545.236 267.876 545.381 267.95 545.494H268.035V542.273H269.04V551H268.069V549.994H267.95C267.876 550.114 267.771 550.264 267.634 550.446C267.498 550.625 267.303 550.786 267.05 550.928C266.798 551.067 266.461 551.136 266.04 551.136ZM266.177 550.233C266.58 550.233 266.921 550.128 267.2 549.918C267.478 549.705 267.69 549.411 267.835 549.036C267.979 548.658 268.052 548.222 268.052 547.727C268.052 547.239 267.981 546.811 267.839 546.445C267.697 546.075 267.487 545.788 267.208 545.584C266.93 545.376 266.586 545.273 266.177 545.273C265.751 545.273 265.396 545.382 265.112 545.601C264.83 545.817 264.619 546.111 264.477 546.483C264.337 546.852 264.268 547.267 264.268 547.727C264.268 548.193 264.339 548.616 264.481 548.997C264.626 549.375 264.839 549.676 265.12 549.901C265.404 550.122 265.756 550.233 266.177 550.233ZM274.107 541.864L271.295 552.312H270.374L273.187 541.864H274.107ZM280.652 544.455L278.231 551H277.208L274.788 544.455H275.879L277.686 549.67H277.754L279.561 544.455H280.652ZM281.962 551V550.233L284.843 547.08C285.181 546.71 285.459 546.389 285.678 546.116C285.897 545.841 286.059 545.582 286.164 545.341C286.272 545.097 286.326 544.841 286.326 544.574C286.326 544.267 286.252 544.001 286.104 543.777C285.959 543.553 285.76 543.379 285.507 543.257C285.255 543.135 284.971 543.074 284.655 543.074C284.32 543.074 284.027 543.143 283.777 543.283C283.53 543.419 283.338 543.611 283.202 543.858C283.069 544.105 283.002 544.395 283.002 544.727H281.996C281.996 544.216 282.114 543.767 282.35 543.381C282.586 542.994 282.907 542.693 283.313 542.477C283.722 542.261 284.181 542.153 284.689 542.153C285.201 542.153 285.654 542.261 286.049 542.477C286.444 542.693 286.753 542.984 286.978 543.351C287.202 543.717 287.314 544.125 287.314 544.574C287.314 544.895 287.256 545.209 287.14 545.516C287.026 545.82 286.827 546.159 286.543 546.534C286.262 546.906 285.871 547.361 285.371 547.898L283.411 549.994V550.062H287.468V551H281.962ZM292.33 541.864L289.517 552.312H288.597L291.409 541.864H292.33ZM294.016 552.091V541.182H296.539V542.017H294.971V551.256H296.539V552.091H294.016ZM298.364 542.273L300.955 549.619H301.057L303.648 542.273H304.756L301.551 551H300.461L297.256 542.273H298.364ZM307.172 542.273V551H306.115V542.273H307.172ZM311.984 551H309.291V542.273H312.104C312.95 542.273 313.675 542.447 314.277 542.797C314.879 543.143 315.341 543.642 315.662 544.293C315.983 544.94 316.143 545.716 316.143 546.619C316.143 547.528 315.982 548.311 315.658 548.967C315.334 549.621 314.862 550.124 314.243 550.476C313.624 550.825 312.871 551 311.984 551ZM310.348 550.062H311.916C312.638 550.062 313.236 549.923 313.71 549.645C314.185 549.366 314.538 548.97 314.771 548.456C315.004 547.942 315.121 547.33 315.121 546.619C315.121 545.915 315.006 545.308 314.776 544.8C314.545 544.288 314.202 543.896 313.744 543.624C313.287 543.348 312.717 543.21 312.036 543.21H310.348V550.062ZM317.916 551V542.273H323.183V543.21H318.973V546.159H322.911V547.097H318.973V550.062H323.251V551H317.916ZM332.452 546.636C332.452 547.557 332.286 548.352 331.953 549.023C331.621 549.693 331.165 550.21 330.585 550.574C330.006 550.938 329.344 551.119 328.599 551.119C327.855 551.119 327.193 550.938 326.614 550.574C326.034 550.21 325.578 549.693 325.246 549.023C324.913 548.352 324.747 547.557 324.747 546.636C324.747 545.716 324.913 544.92 325.246 544.25C325.578 543.58 326.034 543.062 326.614 542.699C327.193 542.335 327.855 542.153 328.599 542.153C329.344 542.153 330.006 542.335 330.585 542.699C331.165 543.062 331.621 543.58 331.953 544.25C332.286 544.92 332.452 545.716 332.452 546.636ZM331.429 546.636C331.429 545.881 331.303 545.243 331.05 544.723C330.8 544.203 330.46 543.81 330.031 543.543C329.605 543.276 329.128 543.142 328.599 543.142C328.071 543.142 327.592 543.276 327.163 543.543C326.737 543.81 326.398 544.203 326.145 544.723C325.895 545.243 325.77 545.881 325.77 546.636C325.77 547.392 325.895 548.03 326.145 548.55C326.398 549.07 326.737 549.463 327.163 549.73C327.592 549.997 328.071 550.131 328.599 550.131C329.128 550.131 329.605 549.997 330.031 549.73C330.46 549.463 330.8 549.07 331.05 548.55C331.303 548.03 331.429 547.392 331.429 546.636ZM338.129 551V551.938H332.674V551H338.129ZM340.231 542.273V551H339.174V542.273H340.231ZM345.043 551H342.35V542.273H345.162C346.009 542.273 346.733 542.447 347.336 542.797C347.938 543.143 348.4 543.642 348.721 544.293C349.042 544.94 349.202 545.716 349.202 546.619C349.202 547.528 349.04 548.311 348.716 548.967C348.392 549.621 347.921 550.124 347.301 550.476C346.682 550.825 345.929 551 345.043 551ZM343.407 550.062H344.975C345.696 550.062 346.294 549.923 346.769 549.645C347.243 549.366 347.597 548.97 347.83 548.456C348.063 547.942 348.179 547.33 348.179 546.619C348.179 545.915 348.064 545.308 347.834 544.8C347.604 544.288 347.26 543.896 346.803 543.624C346.346 543.348 345.776 543.21 345.094 543.21H343.407V550.062ZM352.85 541.182V552.091H350.327V551.256H351.895V542.017H350.327V541.182H352.85Z" fill="white" fill-opacity="0.6"/>
</g>
</g>
<path d="M160 906C160 904.895 160.895 904 162 904H286C287.105 904 288 904.895 288 906C288 907.105 287.105 908 286 908H162C160.895 908 160 907.105 160 906Z" fill="white" fill-opacity="0.3"/>
<path d="M144 8H304V12C304 25.2548 293.255 36 280 36H168C154.745 36 144 25.2548 144 12V8Z" fill="black"/>
<path d="M192 22C192 20.3431 193.343 19 195 19H253C254.657 19 256 20.3431 256 22C256 23.6569 254.657 25 253 25H195C193.343 25 192 23.6569 192 22Z" fill="#1E2939"/>
<defs>
<filter id="filter0_i_70_504" x="20" y="20" width="408" height="886" filterUnits="userSpaceOnUse" color-interpolation-filters="sRGB">
<feFlood flood-opacity="0" result="BackgroundImageFix"/>
<feBlend mode="normal" in="SourceGraphic" in2="BackgroundImageFix" result="shape"/>
<feColorMatrix in="SourceAlpha" type="matrix" values="0 0 0 0 0 0 0 0 0 0 0 0 0 0 0 0 0 0 127 0" result="hardAlpha"/>
<feOffset dy="2"/>
<feGaussianBlur stdDeviation="2"/>
<feComposite in2="hardAlpha" operator="arithmetic" k2="-1" k3="1"/>
<feColorMatrix type="matrix" values="0 0 0 0 0 0 0 0 0 0 0 0 0 0 0 0 0 0 0.05 0"/>
<feBlend mode="normal" in2="shape" result="effect1_innerShadow_70_504"/>
</filter>
<linearGradient id="paint0_linear_70_504" x1="0" y1="0" x2="725.46" y2="351.738" gradientUnits="userSpaceOnUse">
<stop stop-color="#101828"/>
<stop offset="0.5" stop-color="#1E2939"/>
<stop offset="1"/>
</linearGradient>
<linearGradient id="paint1_linear_70_504" x1="0" y1="0" x2="672.702" y2="310.478" gradientUnits="userSpaceOnUse">
<stop stop-color="#101828"/>
<stop offset="1"/>
</linearGradient>
<linearGradient id="paint2_linear_70_504" x1="0" y1="0" x2="672.702" y2="310.478" gradientUnits="userSpaceOnUse">
<stop stop-color="#1A1A1A" stop-opacity="0.9"/>
<stop offset="1" stop-color="#1A1A1A" stop-opacity="0.8"/>
</linearGradient>
<clipPath id="clip0_70_504">
<path d="M20 60C20 37.9086 37.9086 20 60 20H388C410.091 20 428 37.9086 428 60V864C428 886.091 410.091 904 388 904H60C37.9086 904 20 886.091 20 864V60Z" fill="white"/>
</clipPath>
</defs>
</svg>
