<svg width="33" height="33" viewBox="0 0 33 33" fill="none" xmlns="http://www.w3.org/2000/svg">
<path d="M30.25 23.375C30.25 24.1043 29.9603 24.8038 29.4445 25.3195C28.9288 25.8353 28.2293 26.125 27.5 26.125H9.3885C8.65921 26.1252 7.95985 26.415 7.44425 26.9307L4.4165 29.9585C4.27997 30.095 4.10603 30.188 3.91667 30.2256C3.72731 30.2633 3.53104 30.2439 3.35267 30.1701C3.1743 30.0962 3.02184 29.9711 2.91457 29.8106C2.80729 29.65 2.75002 29.4613 2.75 29.2682V6.875C2.75 6.14565 3.03973 5.44618 3.55546 4.93046C4.07118 4.41473 4.77065 4.125 5.5 4.125H27.5C28.2293 4.125 28.9288 4.41473 29.4445 4.93046C29.9603 5.44618 30.25 6.14565 30.25 6.875V23.375Z" stroke="#FDB71A" stroke-width="1.66667" stroke-linecap="round" stroke-linejoin="round"/>
</svg>
